<mxfile host="app.diagrams.net" agent="Mozilla/5.0 (Windows NT 10.0; Win64; x64) AppleWebKit/537.36 (KHTML, like Gecko) Chrome/128.0.0.0 Safari/537.36" version="28.1.2">
  <diagram name="Página-1" id="qi-67Vs0crYqfJVW8VIU">
    <mxGraphModel dx="1965" dy="1148" grid="1" gridSize="10" guides="1" tooltips="1" connect="1" arrows="1" fold="1" page="1" pageScale="1" pageWidth="827" pageHeight="1169" math="0" shadow="0">
      <root>
        <mxCell id="0" />
        <mxCell id="1" parent="0" />
        <mxCell id="Wo2uXCsl7uv-fc03Eagq-1" value="Estoque" style="whiteSpace=wrap;html=1;align=center;fontFamily=Helvetica;fontSize=11;labelBackgroundColor=none;fillColor=#dae8fc;strokeColor=#000000;verticalAlign=middle;fontColor=default;" vertex="1" parent="1">
          <mxGeometry x="740" y="3820" width="100" height="40" as="geometry" />
        </mxCell>
        <mxCell id="Wo2uXCsl7uv-fc03Eagq-2" value="Produto" style="whiteSpace=wrap;html=1;align=center;fontFamily=Helvetica;fontSize=11;labelBackgroundColor=none;fillColor=#dae8fc;strokeColor=#000000;verticalAlign=middle;fontColor=default;" vertex="1" parent="1">
          <mxGeometry x="340" y="910" width="100" height="40" as="geometry" />
        </mxCell>
        <mxCell id="Wo2uXCsl7uv-fc03Eagq-3" value="Fornecedor" style="whiteSpace=wrap;html=1;align=center;fontFamily=Helvetica;fontSize=11;labelBackgroundColor=none;fillColor=#dae8fc;strokeColor=#000000;verticalAlign=middle;fontColor=default;" vertex="1" parent="1">
          <mxGeometry x="340" y="980" width="100" height="40" as="geometry" />
        </mxCell>
        <mxCell id="Wo2uXCsl7uv-fc03Eagq-4" value="Matriz" style="whiteSpace=wrap;html=1;align=center;fontFamily=Helvetica;fontSize=11;labelBackgroundColor=none;fillColor=#dae8fc;strokeColor=#000000;verticalAlign=middle;fontColor=default;" vertex="1" parent="1">
          <mxGeometry x="730" y="3150" width="100" height="40" as="geometry" />
        </mxCell>
        <mxCell id="Wo2uXCsl7uv-fc03Eagq-5" value="Dependente" style="shape=ext;margin=3;double=1;whiteSpace=wrap;html=1;align=center;fontFamily=Helvetica;fontSize=11;labelBackgroundColor=none;fillColor=#e1d5e7;strokeColor=#000000;" vertex="1" parent="1">
          <mxGeometry x="735" y="2190" width="100" height="40" as="geometry" />
        </mxCell>
        <mxCell id="Wo2uXCsl7uv-fc03Eagq-6" value="Financeiro" style="whiteSpace=wrap;html=1;align=center;fontFamily=Helvetica;fontSize=11;labelBackgroundColor=none;fillColor=#dae8fc;strokeColor=#000000;verticalAlign=middle;fontColor=default;" vertex="1" parent="1">
          <mxGeometry x="735" y="4090" width="100" height="40" as="geometry" />
        </mxCell>
        <mxCell id="Wo2uXCsl7uv-fc03Eagq-7" value="Cliente" style="whiteSpace=wrap;html=1;align=center;fillColor=#dae8fc;strokeColor=#000000;verticalAlign=middle;fontFamily=Helvetica;fontSize=11;fontColor=default;labelBackgroundColor=none;" vertex="1" parent="1">
          <mxGeometry x="780" y="335" width="100" height="40" as="geometry" />
        </mxCell>
        <mxCell id="Wo2uXCsl7uv-fc03Eagq-8" style="edgeStyle=none;shape=connector;rounded=0;orthogonalLoop=1;jettySize=auto;html=1;exitX=0.5;exitY=1;exitDx=0;exitDy=0;entryX=0.5;entryY=0;entryDx=0;entryDy=0;strokeColor=#d6b656;align=center;verticalAlign=middle;fontFamily=Helvetica;fontSize=11;fontColor=default;labelBackgroundColor=none;endArrow=none;endFill=0;fillColor=#fff2cc;" edge="1" parent="1" source="Wo2uXCsl7uv-fc03Eagq-9" target="Wo2uXCsl7uv-fc03Eagq-7">
          <mxGeometry relative="1" as="geometry" />
        </mxCell>
        <mxCell id="Wo2uXCsl7uv-fc03Eagq-9" value="CPF" style="ellipse;whiteSpace=wrap;html=1;align=center;fontStyle=4;fontFamily=Helvetica;fontSize=11;labelBackgroundColor=none;fillColor=#fff2cc;strokeColor=#d6b656;" vertex="1" parent="1">
          <mxGeometry x="790" y="255" width="80" height="40" as="geometry" />
        </mxCell>
        <mxCell id="Wo2uXCsl7uv-fc03Eagq-10" style="edgeStyle=none;shape=connector;rounded=0;orthogonalLoop=1;jettySize=auto;html=1;exitX=1;exitY=0.5;exitDx=0;exitDy=0;entryX=0;entryY=0.5;entryDx=0;entryDy=0;strokeColor=#d6b656;align=center;verticalAlign=middle;fontFamily=Helvetica;fontSize=11;fontColor=default;labelBackgroundColor=none;endArrow=none;endFill=0;fillColor=#fff2cc;" edge="1" parent="1" source="Wo2uXCsl7uv-fc03Eagq-11" target="Wo2uXCsl7uv-fc03Eagq-7">
          <mxGeometry relative="1" as="geometry" />
        </mxCell>
        <mxCell id="Wo2uXCsl7uv-fc03Eagq-11" value="Endereço" style="ellipse;whiteSpace=wrap;html=1;align=center;fillColor=#fff2cc;strokeColor=#d6b656;" vertex="1" parent="1">
          <mxGeometry x="640" y="335" width="100" height="40" as="geometry" />
        </mxCell>
        <mxCell id="Wo2uXCsl7uv-fc03Eagq-12" style="edgeStyle=none;shape=connector;rounded=0;orthogonalLoop=1;jettySize=auto;html=1;exitX=1;exitY=1;exitDx=0;exitDy=0;entryX=0;entryY=0.5;entryDx=0;entryDy=0;strokeColor=#d6b656;align=center;verticalAlign=middle;fontFamily=Helvetica;fontSize=11;fontColor=default;labelBackgroundColor=default;endArrow=none;endFill=0;fillColor=#fff2cc;" edge="1" parent="1" source="Wo2uXCsl7uv-fc03Eagq-13" target="Wo2uXCsl7uv-fc03Eagq-11">
          <mxGeometry relative="1" as="geometry" />
        </mxCell>
        <mxCell id="Wo2uXCsl7uv-fc03Eagq-13" value="Logradouro" style="ellipse;whiteSpace=wrap;html=1;align=center;fillColor=#fff2cc;strokeColor=#d6b656;" vertex="1" parent="1">
          <mxGeometry x="500" y="160" width="70" height="40" as="geometry" />
        </mxCell>
        <mxCell id="Wo2uXCsl7uv-fc03Eagq-14" style="edgeStyle=none;shape=connector;rounded=0;orthogonalLoop=1;jettySize=auto;html=1;exitX=1;exitY=1;exitDx=0;exitDy=0;strokeColor=#d6b656;align=center;verticalAlign=middle;fontFamily=Helvetica;fontSize=11;fontColor=default;labelBackgroundColor=default;endArrow=none;endFill=0;fillColor=#fff2cc;" edge="1" parent="1" source="Wo2uXCsl7uv-fc03Eagq-15">
          <mxGeometry relative="1" as="geometry">
            <mxPoint x="640" y="355" as="targetPoint" />
          </mxGeometry>
        </mxCell>
        <mxCell id="Wo2uXCsl7uv-fc03Eagq-15" value="Endereço" style="ellipse;whiteSpace=wrap;html=1;align=center;fillColor=#fff2cc;strokeColor=#d6b656;" vertex="1" parent="1">
          <mxGeometry x="500" y="215" width="70" height="40" as="geometry" />
        </mxCell>
        <mxCell id="Wo2uXCsl7uv-fc03Eagq-16" style="edgeStyle=none;shape=connector;rounded=0;orthogonalLoop=1;jettySize=auto;html=1;exitX=1;exitY=0.5;exitDx=0;exitDy=0;entryX=0;entryY=0.5;entryDx=0;entryDy=0;strokeColor=#d6b656;align=center;verticalAlign=middle;fontFamily=Helvetica;fontSize=11;fontColor=default;labelBackgroundColor=default;endArrow=none;endFill=0;fillColor=#fff2cc;" edge="1" parent="1" source="Wo2uXCsl7uv-fc03Eagq-17" target="Wo2uXCsl7uv-fc03Eagq-11">
          <mxGeometry relative="1" as="geometry" />
        </mxCell>
        <mxCell id="Wo2uXCsl7uv-fc03Eagq-17" value="Numero" style="ellipse;whiteSpace=wrap;html=1;align=center;fillColor=#fff2cc;strokeColor=#d6b656;" vertex="1" parent="1">
          <mxGeometry x="500" y="270" width="70" height="40" as="geometry" />
        </mxCell>
        <mxCell id="Wo2uXCsl7uv-fc03Eagq-18" style="edgeStyle=none;shape=connector;rounded=0;orthogonalLoop=1;jettySize=auto;html=1;exitX=1;exitY=0;exitDx=0;exitDy=0;entryX=0;entryY=0.5;entryDx=0;entryDy=0;strokeColor=#d6b656;align=center;verticalAlign=middle;fontFamily=Helvetica;fontSize=11;fontColor=default;labelBackgroundColor=default;endArrow=none;endFill=0;fillColor=#fff2cc;" edge="1" parent="1" source="Wo2uXCsl7uv-fc03Eagq-19" target="Wo2uXCsl7uv-fc03Eagq-11">
          <mxGeometry relative="1" as="geometry" />
        </mxCell>
        <mxCell id="Wo2uXCsl7uv-fc03Eagq-19" value="CEP&lt;span style=&quot;white-space: pre;&quot;&gt;&#x9;&lt;/span&gt;" style="ellipse;whiteSpace=wrap;html=1;align=center;fillColor=#fff2cc;strokeColor=#d6b656;" vertex="1" parent="1">
          <mxGeometry x="500" y="325" width="70" height="40" as="geometry" />
        </mxCell>
        <mxCell id="Wo2uXCsl7uv-fc03Eagq-20" style="edgeStyle=none;shape=connector;rounded=0;orthogonalLoop=1;jettySize=auto;html=1;exitX=1;exitY=0.5;exitDx=0;exitDy=0;strokeColor=#d6b656;align=center;verticalAlign=middle;fontFamily=Helvetica;fontSize=11;fontColor=default;labelBackgroundColor=default;endArrow=none;endFill=0;fillColor=#fff2cc;" edge="1" parent="1" source="Wo2uXCsl7uv-fc03Eagq-21">
          <mxGeometry relative="1" as="geometry">
            <mxPoint x="640" y="355" as="targetPoint" />
          </mxGeometry>
        </mxCell>
        <mxCell id="Wo2uXCsl7uv-fc03Eagq-21" value="Cidade" style="ellipse;whiteSpace=wrap;html=1;align=center;fillColor=#fff2cc;strokeColor=#d6b656;" vertex="1" parent="1">
          <mxGeometry x="500" y="425" width="70" height="40" as="geometry" />
        </mxCell>
        <mxCell id="Wo2uXCsl7uv-fc03Eagq-22" style="edgeStyle=none;shape=connector;rounded=0;orthogonalLoop=1;jettySize=auto;html=1;exitX=1;exitY=0.5;exitDx=0;exitDy=0;strokeColor=#d6b656;align=center;verticalAlign=middle;fontFamily=Helvetica;fontSize=11;fontColor=default;labelBackgroundColor=default;endArrow=none;endFill=0;fillColor=#fff2cc;" edge="1" parent="1" source="Wo2uXCsl7uv-fc03Eagq-23">
          <mxGeometry relative="1" as="geometry">
            <mxPoint x="640" y="355" as="targetPoint" />
          </mxGeometry>
        </mxCell>
        <mxCell id="Wo2uXCsl7uv-fc03Eagq-23" value="Bairro" style="ellipse;whiteSpace=wrap;html=1;align=center;fillColor=#fff2cc;strokeColor=#d6b656;" vertex="1" parent="1">
          <mxGeometry x="500" y="375" width="70" height="40" as="geometry" />
        </mxCell>
        <mxCell id="Wo2uXCsl7uv-fc03Eagq-24" style="edgeStyle=none;shape=connector;rounded=0;orthogonalLoop=1;jettySize=auto;html=1;exitX=1;exitY=0.5;exitDx=0;exitDy=0;strokeColor=#d6b656;align=center;verticalAlign=middle;fontFamily=Helvetica;fontSize=11;fontColor=default;labelBackgroundColor=default;endArrow=none;endFill=0;fillColor=#fff2cc;" edge="1" parent="1" source="Wo2uXCsl7uv-fc03Eagq-25">
          <mxGeometry relative="1" as="geometry">
            <mxPoint x="640" y="355" as="targetPoint" />
          </mxGeometry>
        </mxCell>
        <mxCell id="Wo2uXCsl7uv-fc03Eagq-25" value="UF" style="ellipse;whiteSpace=wrap;html=1;align=center;fillColor=#fff2cc;strokeColor=#d6b656;" vertex="1" parent="1">
          <mxGeometry x="500" y="475" width="70" height="40" as="geometry" />
        </mxCell>
        <mxCell id="Wo2uXCsl7uv-fc03Eagq-26" style="edgeStyle=none;shape=connector;rounded=0;orthogonalLoop=1;jettySize=auto;html=1;exitX=1;exitY=0.5;exitDx=0;exitDy=0;entryX=0;entryY=0.5;entryDx=0;entryDy=0;strokeColor=#d6b656;align=center;verticalAlign=middle;fontFamily=Helvetica;fontSize=11;fontColor=default;labelBackgroundColor=default;endArrow=none;endFill=0;fillColor=#fff2cc;" edge="1" parent="1" source="Wo2uXCsl7uv-fc03Eagq-27" target="Wo2uXCsl7uv-fc03Eagq-11">
          <mxGeometry relative="1" as="geometry" />
        </mxCell>
        <mxCell id="Wo2uXCsl7uv-fc03Eagq-27" value="Complemento" style="ellipse;whiteSpace=wrap;html=1;align=center;fillColor=#fff2cc;strokeColor=#d6b656;" vertex="1" parent="1">
          <mxGeometry x="500" y="535" width="70" height="40" as="geometry" />
        </mxCell>
        <mxCell id="Wo2uXCsl7uv-fc03Eagq-28" style="edgeStyle=none;shape=connector;rounded=0;orthogonalLoop=1;jettySize=auto;html=1;exitX=0;exitY=0.5;exitDx=0;exitDy=0;strokeColor=#d6b656;align=center;verticalAlign=middle;fontFamily=Helvetica;fontSize=11;fontColor=default;labelBackgroundColor=default;endArrow=none;endFill=0;fillColor=#fff2cc;" edge="1" parent="1" source="Wo2uXCsl7uv-fc03Eagq-15" target="Wo2uXCsl7uv-fc03Eagq-15">
          <mxGeometry relative="1" as="geometry" />
        </mxCell>
        <mxCell id="Wo2uXCsl7uv-fc03Eagq-29" style="edgeStyle=none;shape=connector;rounded=0;orthogonalLoop=1;jettySize=auto;html=1;exitX=0.5;exitY=0;exitDx=0;exitDy=0;entryX=0.5;entryY=1;entryDx=0;entryDy=0;strokeColor=#d6b656;align=center;verticalAlign=middle;fontFamily=Helvetica;fontSize=11;fontColor=default;labelBackgroundColor=none;endArrow=none;endFill=0;fillColor=#fff2cc;" edge="1" parent="1" source="Wo2uXCsl7uv-fc03Eagq-30" target="Wo2uXCsl7uv-fc03Eagq-7">
          <mxGeometry relative="1" as="geometry" />
        </mxCell>
        <mxCell id="Wo2uXCsl7uv-fc03Eagq-30" value="Nome" style="ellipse;whiteSpace=wrap;html=1;align=center;labelBackgroundColor=none;fillColor=#fff2cc;strokeColor=#d6b656;" vertex="1" parent="1">
          <mxGeometry x="810" y="405" width="80" height="40" as="geometry" />
        </mxCell>
        <mxCell id="Wo2uXCsl7uv-fc03Eagq-31" style="edgeStyle=none;shape=connector;rounded=0;orthogonalLoop=1;jettySize=auto;html=1;exitX=0.5;exitY=0;exitDx=0;exitDy=0;strokeColor=#d6b656;align=center;verticalAlign=middle;fontFamily=Helvetica;fontSize=11;fontColor=default;labelBackgroundColor=none;endArrow=none;endFill=0;fillColor=#fff2cc;" edge="1" parent="1" source="Wo2uXCsl7uv-fc03Eagq-32">
          <mxGeometry relative="1" as="geometry">
            <mxPoint x="830" y="374.9999999999999" as="targetPoint" />
          </mxGeometry>
        </mxCell>
        <mxCell id="Wo2uXCsl7uv-fc03Eagq-32" value="Gênero" style="ellipse;whiteSpace=wrap;html=1;align=center;labelBackgroundColor=none;fillColor=#fff2cc;strokeColor=#d6b656;" vertex="1" parent="1">
          <mxGeometry x="900" y="405" width="80" height="40" as="geometry" />
        </mxCell>
        <mxCell id="Wo2uXCsl7uv-fc03Eagq-33" style="edgeStyle=none;shape=connector;rounded=0;orthogonalLoop=1;jettySize=auto;html=1;exitX=0.5;exitY=0;exitDx=0;exitDy=0;entryX=0.5;entryY=1;entryDx=0;entryDy=0;strokeColor=#d6b656;align=center;verticalAlign=middle;fontFamily=Helvetica;fontSize=11;fontColor=default;labelBackgroundColor=none;endArrow=none;endFill=0;fillColor=#fff2cc;" edge="1" parent="1" source="Wo2uXCsl7uv-fc03Eagq-34" target="Wo2uXCsl7uv-fc03Eagq-7">
          <mxGeometry relative="1" as="geometry" />
        </mxCell>
        <mxCell id="Wo2uXCsl7uv-fc03Eagq-34" value="Data nascimento" style="ellipse;whiteSpace=wrap;html=1;align=center;labelBackgroundColor=none;fillColor=#fff2cc;strokeColor=#d6b656;" vertex="1" parent="1">
          <mxGeometry x="720" y="405" width="80" height="40" as="geometry" />
        </mxCell>
        <mxCell id="Wo2uXCsl7uv-fc03Eagq-35" style="edgeStyle=none;shape=connector;rounded=0;orthogonalLoop=1;jettySize=auto;html=1;exitX=0.5;exitY=0;exitDx=0;exitDy=0;entryX=0.5;entryY=1;entryDx=0;entryDy=0;strokeColor=#d6b656;align=center;verticalAlign=middle;fontFamily=Helvetica;fontSize=11;fontColor=default;labelBackgroundColor=none;endArrow=none;endFill=0;fillColor=#fff2cc;" edge="1" parent="1" source="Wo2uXCsl7uv-fc03Eagq-36" target="Wo2uXCsl7uv-fc03Eagq-30">
          <mxGeometry relative="1" as="geometry" />
        </mxCell>
        <mxCell id="Wo2uXCsl7uv-fc03Eagq-36" value="Nome" style="ellipse;whiteSpace=wrap;html=1;align=center;labelBackgroundColor=none;fillColor=#fff2cc;strokeColor=#d6b656;" vertex="1" parent="1">
          <mxGeometry x="770" y="465" width="70" height="40" as="geometry" />
        </mxCell>
        <mxCell id="Wo2uXCsl7uv-fc03Eagq-37" style="edgeStyle=none;shape=connector;rounded=0;orthogonalLoop=1;jettySize=auto;html=1;exitX=0.5;exitY=0;exitDx=0;exitDy=0;strokeColor=#d6b656;align=center;verticalAlign=middle;fontFamily=Helvetica;fontSize=11;fontColor=default;labelBackgroundColor=none;endArrow=none;endFill=0;fillColor=#fff2cc;" edge="1" parent="1" source="Wo2uXCsl7uv-fc03Eagq-38">
          <mxGeometry relative="1" as="geometry">
            <mxPoint x="860" y="445" as="targetPoint" />
          </mxGeometry>
        </mxCell>
        <mxCell id="Wo2uXCsl7uv-fc03Eagq-38" value="Sobrenome" style="ellipse;whiteSpace=wrap;html=1;align=center;labelBackgroundColor=none;fillColor=#fff2cc;strokeColor=#d6b656;" vertex="1" parent="1">
          <mxGeometry x="860" y="465" width="70" height="40" as="geometry" />
        </mxCell>
        <mxCell id="Wo2uXCsl7uv-fc03Eagq-39" style="edgeStyle=none;shape=connector;rounded=0;orthogonalLoop=1;jettySize=auto;html=1;exitX=0;exitY=0.5;exitDx=0;exitDy=0;entryX=1;entryY=0.5;entryDx=0;entryDy=0;strokeColor=#d6b656;align=center;verticalAlign=middle;fontFamily=Helvetica;fontSize=11;fontColor=default;labelBackgroundColor=none;endArrow=none;endFill=0;fillColor=#fff2cc;" edge="1" parent="1" source="Wo2uXCsl7uv-fc03Eagq-40" target="Wo2uXCsl7uv-fc03Eagq-7">
          <mxGeometry relative="1" as="geometry" />
        </mxCell>
        <mxCell id="Wo2uXCsl7uv-fc03Eagq-40" value="Telefone" style="ellipse;shape=doubleEllipse;margin=3;whiteSpace=wrap;html=1;align=center;labelBackgroundColor=none;fillColor=#fff2cc;strokeColor=#d6b656;" vertex="1" parent="1">
          <mxGeometry x="920" y="335" width="100" height="40" as="geometry" />
        </mxCell>
        <mxCell id="Wo2uXCsl7uv-fc03Eagq-41" style="edgeStyle=none;shape=connector;rounded=0;orthogonalLoop=1;jettySize=auto;html=1;exitX=0;exitY=0.5;exitDx=0;exitDy=0;entryX=1;entryY=0.5;entryDx=0;entryDy=0;strokeColor=#d6b656;align=center;verticalAlign=middle;fontFamily=Helvetica;fontSize=11;fontColor=default;labelBackgroundColor=none;endArrow=none;endFill=0;fillColor=#fff2cc;" edge="1" parent="1" source="Wo2uXCsl7uv-fc03Eagq-42" target="Wo2uXCsl7uv-fc03Eagq-40">
          <mxGeometry relative="1" as="geometry" />
        </mxCell>
        <mxCell id="Wo2uXCsl7uv-fc03Eagq-42" value="número" style="ellipse;whiteSpace=wrap;html=1;align=center;labelBackgroundColor=none;fillColor=#fff2cc;strokeColor=#d6b656;" vertex="1" parent="1">
          <mxGeometry x="1040" y="305" width="70" height="40" as="geometry" />
        </mxCell>
        <mxCell id="Wo2uXCsl7uv-fc03Eagq-43" style="edgeStyle=none;shape=connector;rounded=0;orthogonalLoop=1;jettySize=auto;html=1;exitX=0;exitY=0.5;exitDx=0;exitDy=0;entryX=1;entryY=0.5;entryDx=0;entryDy=0;strokeColor=#d6b656;align=center;verticalAlign=middle;fontFamily=Helvetica;fontSize=11;fontColor=default;labelBackgroundColor=none;endArrow=none;endFill=0;fillColor=#fff2cc;" edge="1" parent="1" source="Wo2uXCsl7uv-fc03Eagq-44" target="Wo2uXCsl7uv-fc03Eagq-40">
          <mxGeometry relative="1" as="geometry" />
        </mxCell>
        <mxCell id="Wo2uXCsl7uv-fc03Eagq-44" value="Tipo" style="ellipse;whiteSpace=wrap;html=1;align=center;labelBackgroundColor=none;fillColor=#fff2cc;strokeColor=#d6b656;" vertex="1" parent="1">
          <mxGeometry x="1040" y="365" width="70" height="40" as="geometry" />
        </mxCell>
        <mxCell id="Wo2uXCsl7uv-fc03Eagq-45" value="Pedido" style="shape=ext;margin=3;double=1;whiteSpace=wrap;html=1;align=center;fontFamily=Helvetica;fontSize=11;labelBackgroundColor=none;fillColor=#e1d5e7;strokeColor=default;" vertex="1" parent="1">
          <mxGeometry x="755" y="1020" width="100" height="40" as="geometry" />
        </mxCell>
        <mxCell id="Wo2uXCsl7uv-fc03Eagq-46" style="edgeStyle=none;shape=connector;rounded=0;orthogonalLoop=1;jettySize=auto;html=1;exitX=0.5;exitY=1;exitDx=0;exitDy=0;entryX=0.5;entryY=0;entryDx=0;entryDy=0;strokeColor=#d6b656;align=center;verticalAlign=middle;fontFamily=Helvetica;fontSize=11;fontColor=default;labelBackgroundColor=none;endArrow=none;endFill=0;fillColor=#fff2cc;" edge="1" parent="1" source="Wo2uXCsl7uv-fc03Eagq-47" target="Wo2uXCsl7uv-fc03Eagq-45">
          <mxGeometry relative="1" as="geometry" />
        </mxCell>
        <mxCell id="Wo2uXCsl7uv-fc03Eagq-47" value="CPF" style="ellipse;whiteSpace=wrap;html=1;align=center;fontStyle=4;fontFamily=Helvetica;fontSize=11;labelBackgroundColor=none;fillColor=#fff2cc;strokeColor=#d6b656;" vertex="1" parent="1">
          <mxGeometry x="675" y="940" width="80" height="40" as="geometry" />
        </mxCell>
        <mxCell id="Wo2uXCsl7uv-fc03Eagq-48" style="edgeStyle=none;shape=connector;rounded=0;orthogonalLoop=1;jettySize=auto;html=1;exitX=0.5;exitY=1;exitDx=0;exitDy=0;entryX=0.5;entryY=0;entryDx=0;entryDy=0;strokeColor=#d6b656;align=center;verticalAlign=middle;fontFamily=Helvetica;fontSize=11;fontColor=default;labelBackgroundColor=none;endArrow=none;endFill=0;fillColor=#fff2cc;" edge="1" parent="1" source="Wo2uXCsl7uv-fc03Eagq-49" target="Wo2uXCsl7uv-fc03Eagq-45">
          <mxGeometry relative="1" as="geometry" />
        </mxCell>
        <mxCell id="Wo2uXCsl7uv-fc03Eagq-49" value="ID produto" style="ellipse;whiteSpace=wrap;html=1;align=center;fontStyle=4;fontFamily=Helvetica;fontSize=11;labelBackgroundColor=none;fillColor=#fff2cc;strokeColor=#d6b656;" vertex="1" parent="1">
          <mxGeometry x="855" y="940" width="80" height="40" as="geometry" />
        </mxCell>
        <mxCell id="Wo2uXCsl7uv-fc03Eagq-50" style="edgeStyle=none;shape=connector;rounded=0;orthogonalLoop=1;jettySize=auto;html=1;exitX=1;exitY=0.5;exitDx=0;exitDy=0;entryX=0;entryY=0.5;entryDx=0;entryDy=0;strokeColor=#d6b656;align=center;verticalAlign=middle;fontFamily=Helvetica;fontSize=11;fontColor=default;labelBackgroundColor=none;endArrow=none;endFill=0;fillColor=#fff2cc;" edge="1" parent="1" source="Wo2uXCsl7uv-fc03Eagq-51" target="Wo2uXCsl7uv-fc03Eagq-45">
          <mxGeometry relative="1" as="geometry" />
        </mxCell>
        <mxCell id="Wo2uXCsl7uv-fc03Eagq-51" value="Status" style="ellipse;whiteSpace=wrap;html=1;align=center;fillColor=#fff2cc;strokeColor=#d6b656;labelBackgroundColor=none;" vertex="1" parent="1">
          <mxGeometry x="655" y="1020" width="80" height="40" as="geometry" />
        </mxCell>
        <mxCell id="Wo2uXCsl7uv-fc03Eagq-52" style="edgeStyle=none;shape=connector;rounded=0;orthogonalLoop=1;jettySize=auto;html=1;exitX=0;exitY=0.5;exitDx=0;exitDy=0;entryX=1;entryY=0.5;entryDx=0;entryDy=0;strokeColor=#d6b656;align=center;verticalAlign=middle;fontFamily=Helvetica;fontSize=11;fontColor=default;labelBackgroundColor=none;endArrow=none;endFill=0;fillColor=#fff2cc;" edge="1" parent="1" source="Wo2uXCsl7uv-fc03Eagq-53" target="Wo2uXCsl7uv-fc03Eagq-45">
          <mxGeometry relative="1" as="geometry" />
        </mxCell>
        <mxCell id="Wo2uXCsl7uv-fc03Eagq-53" value="Ordem de pagamento" style="ellipse;whiteSpace=wrap;html=1;align=center;fontStyle=4;fontFamily=Helvetica;fontSize=11;labelBackgroundColor=none;fillColor=#fff2cc;strokeColor=#d6b656;" vertex="1" parent="1">
          <mxGeometry x="885" y="1020" width="120" height="40" as="geometry" />
        </mxCell>
        <mxCell id="Wo2uXCsl7uv-fc03Eagq-54" style="edgeStyle=none;shape=connector;rounded=0;orthogonalLoop=1;jettySize=auto;html=1;exitX=0.5;exitY=1;exitDx=0;exitDy=0;entryX=0.5;entryY=0;entryDx=0;entryDy=0;strokeColor=#d6b656;align=center;verticalAlign=middle;fontFamily=Helvetica;fontSize=11;fontColor=default;labelBackgroundColor=none;endArrow=none;endFill=0;fillColor=#fff2cc;" edge="1" parent="1" source="Wo2uXCsl7uv-fc03Eagq-55" target="Wo2uXCsl7uv-fc03Eagq-45">
          <mxGeometry relative="1" as="geometry" />
        </mxCell>
        <mxCell id="Wo2uXCsl7uv-fc03Eagq-55" value="&lt;span style=&quot;border-bottom: 1px dotted&quot;&gt;ID pedido&lt;/span&gt;" style="ellipse;whiteSpace=wrap;html=1;align=center;fillColor=#fff2cc;strokeColor=#d6b656;labelBackgroundColor=none;" vertex="1" parent="1">
          <mxGeometry x="765" y="940" width="80" height="40" as="geometry" />
        </mxCell>
        <mxCell id="Wo2uXCsl7uv-fc03Eagq-56" value="Pagamento" style="shape=ext;margin=3;double=1;whiteSpace=wrap;html=1;align=center;fontFamily=Helvetica;fontSize=11;labelBackgroundColor=none;fillColor=#e1d5e7;strokeColor=default;" vertex="1" parent="1">
          <mxGeometry x="765" y="720" width="100" height="40" as="geometry" />
        </mxCell>
        <mxCell id="Wo2uXCsl7uv-fc03Eagq-57" style="edgeStyle=none;shape=connector;rounded=0;orthogonalLoop=1;jettySize=auto;html=1;exitX=0.5;exitY=1;exitDx=0;exitDy=0;entryX=0.5;entryY=0;entryDx=0;entryDy=0;strokeColor=#d6b656;align=center;verticalAlign=middle;fontFamily=Helvetica;fontSize=11;fontColor=default;labelBackgroundColor=none;endArrow=none;endFill=0;fillColor=#fff2cc;" edge="1" parent="1" source="Wo2uXCsl7uv-fc03Eagq-58" target="Wo2uXCsl7uv-fc03Eagq-56">
          <mxGeometry relative="1" as="geometry" />
        </mxCell>
        <mxCell id="Wo2uXCsl7uv-fc03Eagq-58" value="Ordem de pagamento" style="ellipse;whiteSpace=wrap;html=1;align=center;fontStyle=4;fontFamily=Helvetica;fontSize=11;labelBackgroundColor=none;fillColor=#fff2cc;strokeColor=#d6b656;" vertex="1" parent="1">
          <mxGeometry x="755" y="640" width="120" height="40" as="geometry" />
        </mxCell>
        <mxCell id="Wo2uXCsl7uv-fc03Eagq-59" value="CPF" style="ellipse;whiteSpace=wrap;html=1;align=center;fontStyle=4;fontFamily=Helvetica;fontSize=11;labelBackgroundColor=none;fillColor=#fff2cc;strokeColor=#d6b656;" vertex="1" parent="1">
          <mxGeometry x="685" y="800" width="80" height="40" as="geometry" />
        </mxCell>
        <mxCell id="Wo2uXCsl7uv-fc03Eagq-60" style="edgeStyle=none;shape=connector;rounded=0;orthogonalLoop=1;jettySize=auto;html=1;exitX=0.5;exitY=0;exitDx=0;exitDy=0;strokeColor=#d6b656;align=center;verticalAlign=middle;fontFamily=Helvetica;fontSize=11;fontColor=default;labelBackgroundColor=none;endArrow=none;endFill=0;fillColor=#fff2cc;" edge="1" parent="1" source="Wo2uXCsl7uv-fc03Eagq-61">
          <mxGeometry relative="1" as="geometry">
            <mxPoint x="815" y="760" as="targetPoint" />
          </mxGeometry>
        </mxCell>
        <mxCell id="Wo2uXCsl7uv-fc03Eagq-61" value="ID produto" style="ellipse;whiteSpace=wrap;html=1;align=center;fontStyle=4;fontFamily=Helvetica;fontSize=11;labelBackgroundColor=none;fillColor=#fff2cc;strokeColor=#d6b656;" vertex="1" parent="1">
          <mxGeometry x="865" y="800" width="80" height="40" as="geometry" />
        </mxCell>
        <mxCell id="Wo2uXCsl7uv-fc03Eagq-62" style="edgeStyle=none;shape=connector;rounded=0;orthogonalLoop=1;jettySize=auto;html=1;exitX=0.5;exitY=0;exitDx=0;exitDy=0;entryX=0.5;entryY=1;entryDx=0;entryDy=0;strokeColor=#d6b656;align=center;verticalAlign=middle;fontFamily=Helvetica;fontSize=11;fontColor=default;labelBackgroundColor=none;endArrow=none;endFill=0;fillColor=#fff2cc;" edge="1" parent="1" source="Wo2uXCsl7uv-fc03Eagq-63" target="Wo2uXCsl7uv-fc03Eagq-56">
          <mxGeometry relative="1" as="geometry" />
        </mxCell>
        <mxCell id="Wo2uXCsl7uv-fc03Eagq-63" value="&lt;span style=&quot;border-bottom: 1px dotted&quot;&gt;ID pedido&lt;/span&gt;" style="ellipse;whiteSpace=wrap;html=1;align=center;fillColor=#fff2cc;strokeColor=#d6b656;labelBackgroundColor=none;" vertex="1" parent="1">
          <mxGeometry x="775" y="800" width="80" height="40" as="geometry" />
        </mxCell>
        <mxCell id="Wo2uXCsl7uv-fc03Eagq-64" style="edgeStyle=none;shape=connector;rounded=0;orthogonalLoop=1;jettySize=auto;html=1;exitX=0.5;exitY=0;exitDx=0;exitDy=0;strokeColor=#d6b656;align=center;verticalAlign=middle;fontFamily=Helvetica;fontSize=11;fontColor=default;labelBackgroundColor=none;endArrow=none;endFill=0;fillColor=#fff2cc;" edge="1" parent="1" source="Wo2uXCsl7uv-fc03Eagq-59">
          <mxGeometry relative="1" as="geometry">
            <mxPoint x="815" y="760" as="targetPoint" />
          </mxGeometry>
        </mxCell>
        <mxCell id="Wo2uXCsl7uv-fc03Eagq-65" value="Formas de pagamento" style="shape=ext;margin=3;double=1;whiteSpace=wrap;html=1;align=center;fontFamily=Helvetica;fontSize=11;labelBackgroundColor=none;fillColor=#e1d5e7;strokeColor=default;" vertex="1" parent="1">
          <mxGeometry x="760" y="1280" width="100" height="40" as="geometry" />
        </mxCell>
        <mxCell id="Wo2uXCsl7uv-fc03Eagq-66" style="edgeStyle=none;shape=connector;rounded=0;orthogonalLoop=1;jettySize=auto;html=1;exitX=0;exitY=0.5;exitDx=0;exitDy=0;entryX=1;entryY=0.5;entryDx=0;entryDy=0;strokeColor=#d6b656;align=center;verticalAlign=middle;fontFamily=Helvetica;fontSize=11;fontColor=default;labelBackgroundColor=none;endArrow=none;endFill=0;fillColor=#fff2cc;" edge="1" parent="1" source="Wo2uXCsl7uv-fc03Eagq-67" target="Wo2uXCsl7uv-fc03Eagq-81">
          <mxGeometry relative="1" as="geometry" />
        </mxCell>
        <mxCell id="Wo2uXCsl7uv-fc03Eagq-67" value="PIX" style="ellipse;whiteSpace=wrap;html=1;align=center;fillColor=#fff2cc;strokeColor=#d6b656;labelBackgroundColor=none;" vertex="1" parent="1">
          <mxGeometry x="990" y="1190" width="80" height="40" as="geometry" />
        </mxCell>
        <mxCell id="Wo2uXCsl7uv-fc03Eagq-68" style="edgeStyle=none;shape=connector;rounded=0;orthogonalLoop=1;jettySize=auto;html=1;exitX=0;exitY=0.5;exitDx=0;exitDy=0;entryX=1;entryY=0.5;entryDx=0;entryDy=0;strokeColor=#d6b656;align=center;verticalAlign=middle;fontFamily=Helvetica;fontSize=11;fontColor=default;labelBackgroundColor=none;endArrow=none;endFill=0;fillColor=#fff2cc;" edge="1" parent="1" source="Wo2uXCsl7uv-fc03Eagq-69">
          <mxGeometry relative="1" as="geometry">
            <mxPoint x="970" y="1300" as="targetPoint" />
          </mxGeometry>
        </mxCell>
        <mxCell id="Wo2uXCsl7uv-fc03Eagq-69" value="Débito" style="ellipse;whiteSpace=wrap;html=1;align=center;fillColor=#fff2cc;strokeColor=#d6b656;labelBackgroundColor=none;" vertex="1" parent="1">
          <mxGeometry x="990" y="1310" width="80" height="40" as="geometry" />
        </mxCell>
        <mxCell id="Wo2uXCsl7uv-fc03Eagq-70" style="edgeStyle=none;shape=connector;rounded=0;orthogonalLoop=1;jettySize=auto;html=1;exitX=0;exitY=0.5;exitDx=0;exitDy=0;entryX=1;entryY=0.5;entryDx=0;entryDy=0;strokeColor=#d6b656;align=center;verticalAlign=middle;fontFamily=Helvetica;fontSize=11;fontColor=default;labelBackgroundColor=none;endArrow=none;endFill=0;fillColor=#fff2cc;" edge="1" parent="1" source="Wo2uXCsl7uv-fc03Eagq-71" target="Wo2uXCsl7uv-fc03Eagq-81">
          <mxGeometry relative="1" as="geometry" />
        </mxCell>
        <mxCell id="Wo2uXCsl7uv-fc03Eagq-71" value="Boleto Bancário" style="ellipse;whiteSpace=wrap;html=1;align=center;fillColor=#fff2cc;strokeColor=#d6b656;labelBackgroundColor=none;" vertex="1" parent="1">
          <mxGeometry x="990" y="1380" width="80" height="40" as="geometry" />
        </mxCell>
        <mxCell id="Wo2uXCsl7uv-fc03Eagq-72" style="edgeStyle=none;shape=connector;rounded=0;orthogonalLoop=1;jettySize=auto;html=1;exitX=0;exitY=0.5;exitDx=0;exitDy=0;entryX=1;entryY=0.5;entryDx=0;entryDy=0;strokeColor=#d6b656;align=center;verticalAlign=middle;fontFamily=Helvetica;fontSize=11;fontColor=default;labelBackgroundColor=none;endArrow=none;endFill=0;fillColor=#fff2cc;" edge="1" parent="1" source="Wo2uXCsl7uv-fc03Eagq-73">
          <mxGeometry relative="1" as="geometry">
            <mxPoint x="970" y="1300" as="targetPoint" />
          </mxGeometry>
        </mxCell>
        <mxCell id="Wo2uXCsl7uv-fc03Eagq-73" value="Crédito" style="ellipse;whiteSpace=wrap;html=1;align=center;fillColor=#fff2cc;strokeColor=#d6b656;labelBackgroundColor=none;" vertex="1" parent="1">
          <mxGeometry x="990" y="1250" width="80" height="40" as="geometry" />
        </mxCell>
        <mxCell id="Wo2uXCsl7uv-fc03Eagq-74" style="edgeStyle=none;shape=connector;rounded=0;orthogonalLoop=1;jettySize=auto;html=1;exitX=0.5;exitY=1;exitDx=0;exitDy=0;entryX=0.5;entryY=0;entryDx=0;entryDy=0;strokeColor=#d6b656;align=center;verticalAlign=middle;fontFamily=Helvetica;fontSize=11;fontColor=default;labelBackgroundColor=none;endArrow=none;endFill=0;fillColor=#fff2cc;" edge="1" parent="1" source="Wo2uXCsl7uv-fc03Eagq-75" target="Wo2uXCsl7uv-fc03Eagq-65">
          <mxGeometry relative="1" as="geometry" />
        </mxCell>
        <mxCell id="Wo2uXCsl7uv-fc03Eagq-75" value="&lt;span style=&quot;border-bottom: 1px dotted&quot;&gt;ID de pagamento&lt;/span&gt;" style="ellipse;whiteSpace=wrap;html=1;align=center;fillColor=#fff2cc;strokeColor=#d6b656;labelBackgroundColor=none;" vertex="1" parent="1">
          <mxGeometry x="770" y="1220" width="80" height="40" as="geometry" />
        </mxCell>
        <mxCell id="Wo2uXCsl7uv-fc03Eagq-76" style="edgeStyle=none;shape=connector;rounded=0;orthogonalLoop=1;jettySize=auto;html=1;exitX=0;exitY=0.5;exitDx=0;exitDy=0;entryX=1;entryY=0.5;entryDx=0;entryDy=0;strokeColor=#d6b656;align=center;verticalAlign=middle;fontFamily=Helvetica;fontSize=11;fontColor=default;labelBackgroundColor=none;endArrow=none;endFill=0;fillColor=#fff2cc;" edge="1" parent="1" source="Wo2uXCsl7uv-fc03Eagq-77" target="Wo2uXCsl7uv-fc03Eagq-56">
          <mxGeometry relative="1" as="geometry" />
        </mxCell>
        <mxCell id="Wo2uXCsl7uv-fc03Eagq-77" value="&lt;span style=&quot;border-bottom: 1px dotted&quot;&gt;ID de pagamento&lt;/span&gt;" style="ellipse;whiteSpace=wrap;html=1;align=center;fillColor=#fff2cc;strokeColor=#d6b656;labelBackgroundColor=none;" vertex="1" parent="1">
          <mxGeometry x="895" y="720" width="80" height="40" as="geometry" />
        </mxCell>
        <mxCell id="Wo2uXCsl7uv-fc03Eagq-78" style="edgeStyle=none;shape=connector;rounded=0;orthogonalLoop=1;jettySize=auto;html=1;exitX=0.5;exitY=0;exitDx=0;exitDy=0;entryX=0.5;entryY=1;entryDx=0;entryDy=0;strokeColor=#d6b656;align=center;verticalAlign=middle;fontFamily=Helvetica;fontSize=11;fontColor=default;labelBackgroundColor=none;endArrow=none;endFill=0;fillColor=#fff2cc;" edge="1" parent="1" source="Wo2uXCsl7uv-fc03Eagq-79" target="Wo2uXCsl7uv-fc03Eagq-45">
          <mxGeometry relative="1" as="geometry" />
        </mxCell>
        <mxCell id="Wo2uXCsl7uv-fc03Eagq-79" value="Data hora" style="ellipse;whiteSpace=wrap;html=1;align=center;fillColor=#fff2cc;strokeColor=#d6b656;labelBackgroundColor=none;" vertex="1" parent="1">
          <mxGeometry x="765" y="1080" width="80" height="40" as="geometry" />
        </mxCell>
        <mxCell id="Wo2uXCsl7uv-fc03Eagq-80" style="edgeStyle=none;shape=connector;rounded=0;orthogonalLoop=1;jettySize=auto;html=1;exitX=0;exitY=0.5;exitDx=0;exitDy=0;entryX=1;entryY=0.5;entryDx=0;entryDy=0;strokeColor=#d6b656;align=center;verticalAlign=middle;fontFamily=Helvetica;fontSize=11;fontColor=default;labelBackgroundColor=none;endArrow=none;endFill=0;fillColor=#fff2cc;" edge="1" parent="1" source="Wo2uXCsl7uv-fc03Eagq-81" target="Wo2uXCsl7uv-fc03Eagq-65">
          <mxGeometry relative="1" as="geometry" />
        </mxCell>
        <mxCell id="Wo2uXCsl7uv-fc03Eagq-81" value="Cartão" style="ellipse;shape=doubleEllipse;margin=3;whiteSpace=wrap;html=1;align=center;fontFamily=Helvetica;fontSize=11;labelBackgroundColor=none;fillColor=#fff2cc;strokeColor=#d6b656;" vertex="1" parent="1">
          <mxGeometry x="890" y="1280" width="80" height="40" as="geometry" />
        </mxCell>
        <mxCell id="Wo2uXCsl7uv-fc03Eagq-82" style="edgeStyle=none;shape=connector;rounded=0;orthogonalLoop=1;jettySize=auto;html=1;exitX=1;exitY=0.5;exitDx=0;exitDy=0;entryX=0;entryY=0.5;entryDx=0;entryDy=0;strokeColor=#d6b656;align=center;verticalAlign=middle;fontFamily=Helvetica;fontSize=11;fontColor=default;labelBackgroundColor=none;endArrow=none;endFill=0;fillColor=#fff2cc;" edge="1" parent="1" source="Wo2uXCsl7uv-fc03Eagq-83" target="Wo2uXCsl7uv-fc03Eagq-65">
          <mxGeometry relative="1" as="geometry" />
        </mxCell>
        <mxCell id="Wo2uXCsl7uv-fc03Eagq-83" value="Status" style="ellipse;whiteSpace=wrap;html=1;align=center;fillColor=#fff2cc;strokeColor=#d6b656;labelBackgroundColor=none;" vertex="1" parent="1">
          <mxGeometry x="650" y="1280" width="80" height="40" as="geometry" />
        </mxCell>
        <mxCell id="Wo2uXCsl7uv-fc03Eagq-84" value="Funcionário" style="whiteSpace=wrap;html=1;align=center;fillColor=#dae8fc;strokeColor=#000000;" vertex="1" parent="1">
          <mxGeometry x="690" y="1820" width="100" height="40" as="geometry" />
        </mxCell>
        <mxCell id="Wo2uXCsl7uv-fc03Eagq-85" style="edgeStyle=none;shape=connector;rounded=0;orthogonalLoop=1;jettySize=auto;html=1;exitX=0.5;exitY=1;exitDx=0;exitDy=0;entryX=0.5;entryY=0;entryDx=0;entryDy=0;strokeColor=#d6b656;align=center;verticalAlign=middle;fontFamily=Helvetica;fontSize=11;fontColor=default;labelBackgroundColor=none;endArrow=none;endFill=0;fillColor=#fff2cc;" edge="1" parent="1" source="Wo2uXCsl7uv-fc03Eagq-86" target="Wo2uXCsl7uv-fc03Eagq-84">
          <mxGeometry relative="1" as="geometry" />
        </mxCell>
        <mxCell id="Wo2uXCsl7uv-fc03Eagq-86" value="Matricula&lt;div&gt;funcionário&lt;/div&gt;" style="ellipse;whiteSpace=wrap;html=1;align=center;fontStyle=4;fontFamily=Helvetica;fontSize=11;labelBackgroundColor=none;fillColor=#fff2cc;strokeColor=#d6b656;" vertex="1" parent="1">
          <mxGeometry x="819" y="1750" width="80" height="40" as="geometry" />
        </mxCell>
        <mxCell id="Wo2uXCsl7uv-fc03Eagq-87" style="edgeStyle=none;shape=connector;rounded=0;orthogonalLoop=1;jettySize=auto;html=1;exitX=1;exitY=0.5;exitDx=0;exitDy=0;entryX=0;entryY=0.5;entryDx=0;entryDy=0;strokeColor=#d6b656;align=center;verticalAlign=middle;fontFamily=Helvetica;fontSize=11;fontColor=default;labelBackgroundColor=none;endArrow=none;endFill=0;fillColor=#fff2cc;" edge="1" parent="1" source="Wo2uXCsl7uv-fc03Eagq-88" target="Wo2uXCsl7uv-fc03Eagq-84">
          <mxGeometry relative="1" as="geometry" />
        </mxCell>
        <mxCell id="Wo2uXCsl7uv-fc03Eagq-88" value="Endereço" style="ellipse;whiteSpace=wrap;html=1;align=center;fillColor=#fff2cc;strokeColor=#d6b656;labelBackgroundColor=none;" vertex="1" parent="1">
          <mxGeometry x="550" y="1820" width="100" height="40" as="geometry" />
        </mxCell>
        <mxCell id="Wo2uXCsl7uv-fc03Eagq-89" style="edgeStyle=none;shape=connector;rounded=0;orthogonalLoop=1;jettySize=auto;html=1;exitX=1;exitY=1;exitDx=0;exitDy=0;entryX=0;entryY=0.5;entryDx=0;entryDy=0;strokeColor=#d6b656;align=center;verticalAlign=middle;fontFamily=Helvetica;fontSize=11;fontColor=default;labelBackgroundColor=none;endArrow=none;endFill=0;fillColor=#fff2cc;" edge="1" parent="1" source="Wo2uXCsl7uv-fc03Eagq-90" target="Wo2uXCsl7uv-fc03Eagq-88">
          <mxGeometry relative="1" as="geometry" />
        </mxCell>
        <mxCell id="Wo2uXCsl7uv-fc03Eagq-90" value="Logradouro" style="ellipse;whiteSpace=wrap;html=1;align=center;fillColor=#fff2cc;strokeColor=#d6b656;labelBackgroundColor=none;" vertex="1" parent="1">
          <mxGeometry x="410" y="1630" width="70" height="40" as="geometry" />
        </mxCell>
        <mxCell id="Wo2uXCsl7uv-fc03Eagq-91" style="edgeStyle=none;shape=connector;rounded=0;orthogonalLoop=1;jettySize=auto;html=1;exitX=1;exitY=1;exitDx=0;exitDy=0;strokeColor=#d6b656;align=center;verticalAlign=middle;fontFamily=Helvetica;fontSize=11;fontColor=default;labelBackgroundColor=none;endArrow=none;endFill=0;fillColor=#fff2cc;" edge="1" parent="1" source="Wo2uXCsl7uv-fc03Eagq-92">
          <mxGeometry relative="1" as="geometry">
            <mxPoint x="550" y="1840" as="targetPoint" />
          </mxGeometry>
        </mxCell>
        <mxCell id="Wo2uXCsl7uv-fc03Eagq-92" value="Endereço" style="ellipse;whiteSpace=wrap;html=1;align=center;fillColor=#fff2cc;strokeColor=#d6b656;labelBackgroundColor=none;" vertex="1" parent="1">
          <mxGeometry x="410" y="1690" width="70" height="40" as="geometry" />
        </mxCell>
        <mxCell id="Wo2uXCsl7uv-fc03Eagq-93" style="edgeStyle=none;shape=connector;rounded=0;orthogonalLoop=1;jettySize=auto;html=1;exitX=1;exitY=0.5;exitDx=0;exitDy=0;entryX=0;entryY=0.5;entryDx=0;entryDy=0;strokeColor=#d6b656;align=center;verticalAlign=middle;fontFamily=Helvetica;fontSize=11;fontColor=default;labelBackgroundColor=none;endArrow=none;endFill=0;fillColor=#fff2cc;" edge="1" parent="1" source="Wo2uXCsl7uv-fc03Eagq-94" target="Wo2uXCsl7uv-fc03Eagq-88">
          <mxGeometry relative="1" as="geometry" />
        </mxCell>
        <mxCell id="Wo2uXCsl7uv-fc03Eagq-94" value="Numero" style="ellipse;whiteSpace=wrap;html=1;align=center;fillColor=#fff2cc;strokeColor=#d6b656;labelBackgroundColor=none;" vertex="1" parent="1">
          <mxGeometry x="410" y="1750" width="70" height="40" as="geometry" />
        </mxCell>
        <mxCell id="Wo2uXCsl7uv-fc03Eagq-95" style="edgeStyle=none;shape=connector;rounded=0;orthogonalLoop=1;jettySize=auto;html=1;exitX=1;exitY=0;exitDx=0;exitDy=0;entryX=0;entryY=0.5;entryDx=0;entryDy=0;strokeColor=#d6b656;align=center;verticalAlign=middle;fontFamily=Helvetica;fontSize=11;fontColor=default;labelBackgroundColor=none;endArrow=none;endFill=0;fillColor=#fff2cc;" edge="1" parent="1" source="Wo2uXCsl7uv-fc03Eagq-96" target="Wo2uXCsl7uv-fc03Eagq-88">
          <mxGeometry relative="1" as="geometry" />
        </mxCell>
        <mxCell id="Wo2uXCsl7uv-fc03Eagq-96" value="CEP&lt;span style=&quot;white-space: pre;&quot;&gt;&#x9;&lt;/span&gt;" style="ellipse;whiteSpace=wrap;html=1;align=center;fillColor=#fff2cc;strokeColor=#d6b656;labelBackgroundColor=none;" vertex="1" parent="1">
          <mxGeometry x="410" y="1810" width="70" height="40" as="geometry" />
        </mxCell>
        <mxCell id="Wo2uXCsl7uv-fc03Eagq-97" style="edgeStyle=none;shape=connector;rounded=0;orthogonalLoop=1;jettySize=auto;html=1;exitX=1;exitY=0.5;exitDx=0;exitDy=0;strokeColor=#d6b656;align=center;verticalAlign=middle;fontFamily=Helvetica;fontSize=11;fontColor=default;labelBackgroundColor=none;endArrow=none;endFill=0;fillColor=#fff2cc;" edge="1" parent="1" source="Wo2uXCsl7uv-fc03Eagq-98">
          <mxGeometry relative="1" as="geometry">
            <mxPoint x="550" y="1840" as="targetPoint" />
          </mxGeometry>
        </mxCell>
        <mxCell id="Wo2uXCsl7uv-fc03Eagq-98" value="Cidade" style="ellipse;whiteSpace=wrap;html=1;align=center;fillColor=#fff2cc;strokeColor=#d6b656;labelBackgroundColor=none;" vertex="1" parent="1">
          <mxGeometry x="410" y="1910" width="70" height="40" as="geometry" />
        </mxCell>
        <mxCell id="Wo2uXCsl7uv-fc03Eagq-99" style="edgeStyle=none;shape=connector;rounded=0;orthogonalLoop=1;jettySize=auto;html=1;exitX=1;exitY=0.5;exitDx=0;exitDy=0;strokeColor=#d6b656;align=center;verticalAlign=middle;fontFamily=Helvetica;fontSize=11;fontColor=default;labelBackgroundColor=none;endArrow=none;endFill=0;fillColor=#fff2cc;" edge="1" parent="1" source="Wo2uXCsl7uv-fc03Eagq-100">
          <mxGeometry relative="1" as="geometry">
            <mxPoint x="550" y="1840" as="targetPoint" />
          </mxGeometry>
        </mxCell>
        <mxCell id="Wo2uXCsl7uv-fc03Eagq-100" value="Bairro" style="ellipse;whiteSpace=wrap;html=1;align=center;fillColor=#fff2cc;strokeColor=#d6b656;labelBackgroundColor=none;" vertex="1" parent="1">
          <mxGeometry x="410" y="1860" width="70" height="40" as="geometry" />
        </mxCell>
        <mxCell id="Wo2uXCsl7uv-fc03Eagq-101" style="edgeStyle=none;shape=connector;rounded=0;orthogonalLoop=1;jettySize=auto;html=1;exitX=1;exitY=0.5;exitDx=0;exitDy=0;strokeColor=#d6b656;align=center;verticalAlign=middle;fontFamily=Helvetica;fontSize=11;fontColor=default;labelBackgroundColor=none;endArrow=none;endFill=0;fillColor=#fff2cc;" edge="1" parent="1" source="Wo2uXCsl7uv-fc03Eagq-102">
          <mxGeometry relative="1" as="geometry">
            <mxPoint x="550" y="1840" as="targetPoint" />
          </mxGeometry>
        </mxCell>
        <mxCell id="Wo2uXCsl7uv-fc03Eagq-102" value="UF" style="ellipse;whiteSpace=wrap;html=1;align=center;fillColor=#fff2cc;strokeColor=#d6b656;labelBackgroundColor=none;" vertex="1" parent="1">
          <mxGeometry x="410" y="1960" width="70" height="40" as="geometry" />
        </mxCell>
        <mxCell id="Wo2uXCsl7uv-fc03Eagq-103" style="edgeStyle=none;shape=connector;rounded=0;orthogonalLoop=1;jettySize=auto;html=1;exitX=1;exitY=0.5;exitDx=0;exitDy=0;entryX=0;entryY=0.5;entryDx=0;entryDy=0;strokeColor=#d6b656;align=center;verticalAlign=middle;fontFamily=Helvetica;fontSize=11;fontColor=default;labelBackgroundColor=none;endArrow=none;endFill=0;fillColor=#fff2cc;" edge="1" parent="1" source="Wo2uXCsl7uv-fc03Eagq-104" target="Wo2uXCsl7uv-fc03Eagq-88">
          <mxGeometry relative="1" as="geometry" />
        </mxCell>
        <mxCell id="Wo2uXCsl7uv-fc03Eagq-104" value="Complemento" style="ellipse;whiteSpace=wrap;html=1;align=center;fillColor=#fff2cc;strokeColor=#d6b656;labelBackgroundColor=none;" vertex="1" parent="1">
          <mxGeometry x="410" y="2020" width="70" height="40" as="geometry" />
        </mxCell>
        <mxCell id="Wo2uXCsl7uv-fc03Eagq-105" style="edgeStyle=none;shape=connector;rounded=0;orthogonalLoop=1;jettySize=auto;html=1;exitX=0;exitY=0.5;exitDx=0;exitDy=0;strokeColor=#d6b656;align=center;verticalAlign=middle;fontFamily=Helvetica;fontSize=11;fontColor=default;labelBackgroundColor=none;endArrow=none;endFill=0;fillColor=#fff2cc;" edge="1" parent="1" source="Wo2uXCsl7uv-fc03Eagq-92" target="Wo2uXCsl7uv-fc03Eagq-92">
          <mxGeometry relative="1" as="geometry" />
        </mxCell>
        <mxCell id="Wo2uXCsl7uv-fc03Eagq-106" style="edgeStyle=none;shape=connector;rounded=0;orthogonalLoop=1;jettySize=auto;html=1;exitX=0.5;exitY=0;exitDx=0;exitDy=0;entryX=0.5;entryY=1;entryDx=0;entryDy=0;strokeColor=#d6b656;align=center;verticalAlign=middle;fontFamily=Helvetica;fontSize=11;fontColor=default;labelBackgroundColor=none;endArrow=none;endFill=0;fillColor=#fff2cc;" edge="1" parent="1" source="Wo2uXCsl7uv-fc03Eagq-107" target="Wo2uXCsl7uv-fc03Eagq-84">
          <mxGeometry relative="1" as="geometry" />
        </mxCell>
        <mxCell id="Wo2uXCsl7uv-fc03Eagq-107" value="Nome" style="ellipse;whiteSpace=wrap;html=1;align=center;fillColor=#fff2cc;strokeColor=#d6b656;labelBackgroundColor=none;" vertex="1" parent="1">
          <mxGeometry x="720" y="1890" width="80" height="40" as="geometry" />
        </mxCell>
        <mxCell id="Wo2uXCsl7uv-fc03Eagq-108" style="edgeStyle=none;shape=connector;rounded=0;orthogonalLoop=1;jettySize=auto;html=1;exitX=0.5;exitY=0;exitDx=0;exitDy=0;strokeColor=#d6b656;align=center;verticalAlign=middle;fontFamily=Helvetica;fontSize=11;fontColor=default;labelBackgroundColor=none;endArrow=none;endFill=0;fillColor=#fff2cc;" edge="1" parent="1" source="Wo2uXCsl7uv-fc03Eagq-109">
          <mxGeometry relative="1" as="geometry">
            <mxPoint x="740" y="1860" as="targetPoint" />
          </mxGeometry>
        </mxCell>
        <mxCell id="Wo2uXCsl7uv-fc03Eagq-109" value="Gênero" style="ellipse;whiteSpace=wrap;html=1;align=center;fillColor=#fff2cc;strokeColor=#d6b656;labelBackgroundColor=none;" vertex="1" parent="1">
          <mxGeometry x="810" y="1890" width="80" height="40" as="geometry" />
        </mxCell>
        <mxCell id="Wo2uXCsl7uv-fc03Eagq-110" style="edgeStyle=none;shape=connector;rounded=0;orthogonalLoop=1;jettySize=auto;html=1;exitX=0.5;exitY=0;exitDx=0;exitDy=0;entryX=0.5;entryY=1;entryDx=0;entryDy=0;strokeColor=#d6b656;align=center;verticalAlign=middle;fontFamily=Helvetica;fontSize=11;fontColor=default;labelBackgroundColor=none;endArrow=none;endFill=0;fillColor=#fff2cc;" edge="1" parent="1" source="Wo2uXCsl7uv-fc03Eagq-111" target="Wo2uXCsl7uv-fc03Eagq-84">
          <mxGeometry relative="1" as="geometry" />
        </mxCell>
        <mxCell id="Wo2uXCsl7uv-fc03Eagq-111" value="Data nascimento" style="ellipse;whiteSpace=wrap;html=1;align=center;fillColor=#fff2cc;strokeColor=#d6b656;labelBackgroundColor=none;" vertex="1" parent="1">
          <mxGeometry x="630" y="1890" width="80" height="40" as="geometry" />
        </mxCell>
        <mxCell id="Wo2uXCsl7uv-fc03Eagq-112" style="edgeStyle=none;shape=connector;rounded=0;orthogonalLoop=1;jettySize=auto;html=1;exitX=0.5;exitY=0;exitDx=0;exitDy=0;entryX=0.5;entryY=1;entryDx=0;entryDy=0;strokeColor=#d6b656;align=center;verticalAlign=middle;fontFamily=Helvetica;fontSize=11;fontColor=default;labelBackgroundColor=none;endArrow=none;endFill=0;fillColor=#fff2cc;" edge="1" parent="1" source="Wo2uXCsl7uv-fc03Eagq-113" target="Wo2uXCsl7uv-fc03Eagq-107">
          <mxGeometry relative="1" as="geometry" />
        </mxCell>
        <mxCell id="Wo2uXCsl7uv-fc03Eagq-113" value="Nome" style="ellipse;whiteSpace=wrap;html=1;align=center;fillColor=#fff2cc;strokeColor=#d6b656;labelBackgroundColor=none;" vertex="1" parent="1">
          <mxGeometry x="680" y="1950" width="70" height="40" as="geometry" />
        </mxCell>
        <mxCell id="Wo2uXCsl7uv-fc03Eagq-114" style="edgeStyle=none;shape=connector;rounded=0;orthogonalLoop=1;jettySize=auto;html=1;exitX=0.5;exitY=0;exitDx=0;exitDy=0;strokeColor=#d6b656;align=center;verticalAlign=middle;fontFamily=Helvetica;fontSize=11;fontColor=default;labelBackgroundColor=none;endArrow=none;endFill=0;fillColor=#fff2cc;" edge="1" parent="1" source="Wo2uXCsl7uv-fc03Eagq-115">
          <mxGeometry relative="1" as="geometry">
            <mxPoint x="770" y="1930" as="targetPoint" />
          </mxGeometry>
        </mxCell>
        <mxCell id="Wo2uXCsl7uv-fc03Eagq-115" value="Sobrenome" style="ellipse;whiteSpace=wrap;html=1;align=center;fillColor=#fff2cc;strokeColor=#d6b656;labelBackgroundColor=none;" vertex="1" parent="1">
          <mxGeometry x="770" y="1950" width="70" height="40" as="geometry" />
        </mxCell>
        <mxCell id="Wo2uXCsl7uv-fc03Eagq-116" style="edgeStyle=none;shape=connector;rounded=0;orthogonalLoop=1;jettySize=auto;html=1;exitX=0;exitY=0.5;exitDx=0;exitDy=0;entryX=1;entryY=0.5;entryDx=0;entryDy=0;strokeColor=#d6b656;align=center;verticalAlign=middle;fontFamily=Helvetica;fontSize=11;fontColor=default;labelBackgroundColor=none;endArrow=none;endFill=0;fillColor=#fff2cc;" edge="1" parent="1" source="Wo2uXCsl7uv-fc03Eagq-117" target="Wo2uXCsl7uv-fc03Eagq-84">
          <mxGeometry relative="1" as="geometry" />
        </mxCell>
        <mxCell id="Wo2uXCsl7uv-fc03Eagq-117" value="Telefone" style="ellipse;shape=doubleEllipse;margin=3;whiteSpace=wrap;html=1;align=center;fillColor=#fff2cc;strokeColor=#d6b656;labelBackgroundColor=none;" vertex="1" parent="1">
          <mxGeometry x="830" y="1820" width="100" height="40" as="geometry" />
        </mxCell>
        <mxCell id="Wo2uXCsl7uv-fc03Eagq-118" style="edgeStyle=none;shape=connector;rounded=0;orthogonalLoop=1;jettySize=auto;html=1;exitX=0;exitY=0.5;exitDx=0;exitDy=0;entryX=1;entryY=0.5;entryDx=0;entryDy=0;strokeColor=#d6b656;align=center;verticalAlign=middle;fontFamily=Helvetica;fontSize=11;fontColor=default;labelBackgroundColor=none;endArrow=none;endFill=0;fillColor=#fff2cc;" edge="1" parent="1" source="Wo2uXCsl7uv-fc03Eagq-119" target="Wo2uXCsl7uv-fc03Eagq-117">
          <mxGeometry relative="1" as="geometry" />
        </mxCell>
        <mxCell id="Wo2uXCsl7uv-fc03Eagq-119" value="número" style="ellipse;whiteSpace=wrap;html=1;align=center;fillColor=#fff2cc;strokeColor=#d6b656;labelBackgroundColor=none;" vertex="1" parent="1">
          <mxGeometry x="950" y="1790" width="70" height="40" as="geometry" />
        </mxCell>
        <mxCell id="Wo2uXCsl7uv-fc03Eagq-120" style="edgeStyle=none;shape=connector;rounded=0;orthogonalLoop=1;jettySize=auto;html=1;exitX=0;exitY=0.5;exitDx=0;exitDy=0;entryX=1;entryY=0.5;entryDx=0;entryDy=0;strokeColor=#d6b656;align=center;verticalAlign=middle;fontFamily=Helvetica;fontSize=11;fontColor=default;labelBackgroundColor=none;endArrow=none;endFill=0;fillColor=#fff2cc;" edge="1" parent="1" source="Wo2uXCsl7uv-fc03Eagq-121" target="Wo2uXCsl7uv-fc03Eagq-117">
          <mxGeometry relative="1" as="geometry" />
        </mxCell>
        <mxCell id="Wo2uXCsl7uv-fc03Eagq-121" value="Tipo" style="ellipse;whiteSpace=wrap;html=1;align=center;fillColor=#fff2cc;strokeColor=#d6b656;labelBackgroundColor=none;" vertex="1" parent="1">
          <mxGeometry x="950" y="1850" width="70" height="40" as="geometry" />
        </mxCell>
        <mxCell id="Wo2uXCsl7uv-fc03Eagq-122" style="edgeStyle=none;shape=connector;rounded=0;orthogonalLoop=1;jettySize=auto;html=1;exitX=0.5;exitY=1;exitDx=0;exitDy=0;entryX=0.5;entryY=0;entryDx=0;entryDy=0;strokeColor=#d6b656;align=center;verticalAlign=middle;fontFamily=Helvetica;fontSize=11;fontColor=default;labelBackgroundColor=none;endArrow=none;endFill=0;fillColor=#fff2cc;" edge="1" parent="1" source="Wo2uXCsl7uv-fc03Eagq-123" target="Wo2uXCsl7uv-fc03Eagq-84">
          <mxGeometry relative="1" as="geometry" />
        </mxCell>
        <mxCell id="Wo2uXCsl7uv-fc03Eagq-123" value="CPF" style="ellipse;whiteSpace=wrap;html=1;align=center;fillColor=#fff2cc;strokeColor=#d6b656;labelBackgroundColor=none;" vertex="1" parent="1">
          <mxGeometry x="780" y="1710" width="80" height="40" as="geometry" />
        </mxCell>
        <mxCell id="Wo2uXCsl7uv-fc03Eagq-124" style="edgeStyle=none;shape=connector;rounded=0;orthogonalLoop=1;jettySize=auto;html=1;exitX=1;exitY=0.5;exitDx=0;exitDy=0;entryX=0.5;entryY=1;entryDx=0;entryDy=0;strokeColor=#d6b656;align=center;verticalAlign=middle;fontFamily=Helvetica;fontSize=11;fontColor=default;labelBackgroundColor=none;endArrow=none;endFill=0;fillColor=#fff2cc;" edge="1" parent="1" source="Wo2uXCsl7uv-fc03Eagq-125" target="Wo2uXCsl7uv-fc03Eagq-84">
          <mxGeometry relative="1" as="geometry" />
        </mxCell>
        <mxCell id="Wo2uXCsl7uv-fc03Eagq-125" value="Salário" style="ellipse;whiteSpace=wrap;html=1;align=center;dashed=1;strokeColor=#d6b656;verticalAlign=middle;fontFamily=Helvetica;fontSize=11;labelBackgroundColor=none;fillColor=#fff2cc;" vertex="1" parent="1">
          <mxGeometry x="540" y="1870" width="70" height="40" as="geometry" />
        </mxCell>
        <mxCell id="Wo2uXCsl7uv-fc03Eagq-126" value="PIX" style="ellipse;whiteSpace=wrap;html=1;align=center;fillColor=#fff2cc;strokeColor=#d6b656;labelBackgroundColor=none;" vertex="1" parent="1">
          <mxGeometry x="990" y="1310" width="80" height="40" as="geometry" />
        </mxCell>
        <mxCell id="Wo2uXCsl7uv-fc03Eagq-127" style="edgeStyle=none;shape=connector;rounded=0;orthogonalLoop=1;jettySize=auto;html=1;exitX=0.5;exitY=1;exitDx=0;exitDy=0;entryX=0;entryY=0;entryDx=0;entryDy=0;strokeColor=default;align=center;verticalAlign=middle;fontFamily=Helvetica;fontSize=11;fontColor=default;labelBackgroundColor=none;endArrow=none;endFill=0;" edge="1" parent="1" source="Wo2uXCsl7uv-fc03Eagq-128" target="Wo2uXCsl7uv-fc03Eagq-84">
          <mxGeometry relative="1" as="geometry" />
        </mxCell>
        <mxCell id="Wo2uXCsl7uv-fc03Eagq-128" value="Idade" style="ellipse;whiteSpace=wrap;html=1;align=center;dashed=1;strokeColor=#d6b656;verticalAlign=middle;fontFamily=Helvetica;fontSize=11;labelBackgroundColor=none;fillColor=#fff2cc;" vertex="1" parent="1">
          <mxGeometry x="600" y="1750" width="70" height="40" as="geometry" />
        </mxCell>
        <mxCell id="Wo2uXCsl7uv-fc03Eagq-129" style="edgeStyle=none;shape=connector;rounded=0;orthogonalLoop=1;jettySize=auto;html=1;exitX=0.5;exitY=0;exitDx=0;exitDy=0;entryX=0.5;entryY=1;entryDx=0;entryDy=0;strokeColor=default;align=center;verticalAlign=middle;fontFamily=Helvetica;fontSize=11;fontColor=default;labelBackgroundColor=none;endArrow=none;endFill=0;" edge="1" parent="1" source="Wo2uXCsl7uv-fc03Eagq-130" target="Wo2uXCsl7uv-fc03Eagq-5">
          <mxGeometry relative="1" as="geometry" />
        </mxCell>
        <mxCell id="Wo2uXCsl7uv-fc03Eagq-130" value="Nome" style="ellipse;whiteSpace=wrap;html=1;align=center;fillColor=#fff2cc;strokeColor=#d6b656;labelBackgroundColor=none;" vertex="1" parent="1">
          <mxGeometry x="745" y="2260" width="80" height="40" as="geometry" />
        </mxCell>
        <mxCell id="Wo2uXCsl7uv-fc03Eagq-131" style="edgeStyle=none;shape=connector;rounded=0;orthogonalLoop=1;jettySize=auto;html=1;exitX=0.5;exitY=0;exitDx=0;exitDy=0;entryX=0.5;entryY=1;entryDx=0;entryDy=0;strokeColor=#d6b656;align=center;verticalAlign=middle;fontFamily=Helvetica;fontSize=11;fontColor=default;labelBackgroundColor=none;endArrow=none;endFill=0;fillColor=#fff2cc;" edge="1" parent="1" source="Wo2uXCsl7uv-fc03Eagq-132" target="Wo2uXCsl7uv-fc03Eagq-130">
          <mxGeometry relative="1" as="geometry" />
        </mxCell>
        <mxCell id="Wo2uXCsl7uv-fc03Eagq-132" value="Nome" style="ellipse;whiteSpace=wrap;html=1;align=center;fillColor=#fff2cc;strokeColor=#d6b656;labelBackgroundColor=none;" vertex="1" parent="1">
          <mxGeometry x="705" y="2320" width="70" height="40" as="geometry" />
        </mxCell>
        <mxCell id="Wo2uXCsl7uv-fc03Eagq-133" value="Sobrenome" style="ellipse;whiteSpace=wrap;html=1;align=center;fillColor=#fff2cc;strokeColor=#d6b656;labelBackgroundColor=none;" vertex="1" parent="1">
          <mxGeometry x="795" y="2320" width="70" height="40" as="geometry" />
        </mxCell>
        <mxCell id="Wo2uXCsl7uv-fc03Eagq-134" style="edgeStyle=none;shape=connector;rounded=0;orthogonalLoop=1;jettySize=auto;html=1;exitX=0.5;exitY=0;exitDx=0;exitDy=0;strokeColor=#d6b656;align=center;verticalAlign=middle;fontFamily=Helvetica;fontSize=11;fontColor=default;labelBackgroundColor=none;endArrow=none;endFill=0;fillColor=#fff2cc;" edge="1" parent="1" source="Wo2uXCsl7uv-fc03Eagq-133">
          <mxGeometry relative="1" as="geometry">
            <mxPoint x="795" y="2300" as="targetPoint" />
          </mxGeometry>
        </mxCell>
        <mxCell id="Wo2uXCsl7uv-fc03Eagq-135" style="edgeStyle=none;shape=connector;rounded=0;orthogonalLoop=1;jettySize=auto;html=1;exitX=0;exitY=0;exitDx=0;exitDy=0;entryX=0.5;entryY=1;entryDx=0;entryDy=0;strokeColor=default;align=center;verticalAlign=middle;fontFamily=Helvetica;fontSize=11;fontColor=default;labelBackgroundColor=none;endArrow=none;endFill=0;" edge="1" parent="1" source="Wo2uXCsl7uv-fc03Eagq-136" target="Wo2uXCsl7uv-fc03Eagq-5">
          <mxGeometry relative="1" as="geometry" />
        </mxCell>
        <mxCell id="Wo2uXCsl7uv-fc03Eagq-136" value="&lt;u&gt;CPF&lt;/u&gt;" style="ellipse;whiteSpace=wrap;html=1;align=center;fillColor=#fff2cc;strokeColor=#d6b656;labelBackgroundColor=none;" vertex="1" parent="1">
          <mxGeometry x="850" y="2250" width="80" height="40" as="geometry" />
        </mxCell>
        <mxCell id="Wo2uXCsl7uv-fc03Eagq-137" style="edgeStyle=none;shape=connector;rounded=0;orthogonalLoop=1;jettySize=auto;html=1;exitX=1;exitY=0;exitDx=0;exitDy=0;entryX=0.5;entryY=1;entryDx=0;entryDy=0;strokeColor=default;align=center;verticalAlign=middle;fontFamily=Helvetica;fontSize=11;fontColor=default;labelBackgroundColor=none;endArrow=none;endFill=0;" edge="1" parent="1" source="Wo2uXCsl7uv-fc03Eagq-138" target="Wo2uXCsl7uv-fc03Eagq-5">
          <mxGeometry relative="1" as="geometry" />
        </mxCell>
        <mxCell id="Wo2uXCsl7uv-fc03Eagq-138" value="Matricula&lt;div&gt;funcionário&lt;/div&gt;" style="ellipse;whiteSpace=wrap;html=1;align=center;fontStyle=4;fontFamily=Helvetica;fontSize=11;labelBackgroundColor=none;fillColor=#fff2cc;strokeColor=#d6b656;" vertex="1" parent="1">
          <mxGeometry x="640" y="2250" width="80" height="40" as="geometry" />
        </mxCell>
        <mxCell id="Wo2uXCsl7uv-fc03Eagq-139" style="edgeStyle=none;shape=connector;rounded=0;orthogonalLoop=1;jettySize=auto;html=1;exitX=0;exitY=0.5;exitDx=0;exitDy=0;entryX=1;entryY=0.5;entryDx=0;entryDy=0;strokeColor=default;align=center;verticalAlign=middle;fontFamily=Helvetica;fontSize=11;fontColor=default;labelBackgroundColor=none;endArrow=none;endFill=0;" edge="1" parent="1" source="Wo2uXCsl7uv-fc03Eagq-140" target="Wo2uXCsl7uv-fc03Eagq-5">
          <mxGeometry relative="1" as="geometry" />
        </mxCell>
        <mxCell id="Wo2uXCsl7uv-fc03Eagq-140" value="Grau" style="ellipse;whiteSpace=wrap;html=1;align=center;fillColor=#fff2cc;strokeColor=#d6b656;labelBackgroundColor=none;" vertex="1" parent="1">
          <mxGeometry x="880" y="2190" width="80" height="40" as="geometry" />
        </mxCell>
        <mxCell id="Wo2uXCsl7uv-fc03Eagq-141" style="edgeStyle=none;shape=connector;rounded=0;orthogonalLoop=1;jettySize=auto;html=1;exitX=1;exitY=0.5;exitDx=0;exitDy=0;entryX=0;entryY=0.5;entryDx=0;entryDy=0;strokeColor=default;align=center;verticalAlign=middle;fontFamily=Helvetica;fontSize=11;fontColor=default;labelBackgroundColor=none;endArrow=none;endFill=0;" edge="1" parent="1" source="Wo2uXCsl7uv-fc03Eagq-142" target="Wo2uXCsl7uv-fc03Eagq-5">
          <mxGeometry relative="1" as="geometry" />
        </mxCell>
        <mxCell id="Wo2uXCsl7uv-fc03Eagq-142" value="Gênero" style="ellipse;whiteSpace=wrap;html=1;align=center;fillColor=#fff2cc;strokeColor=#d6b656;labelBackgroundColor=none;" vertex="1" parent="1">
          <mxGeometry x="625" y="2190" width="80" height="40" as="geometry" />
        </mxCell>
        <mxCell id="Wo2uXCsl7uv-fc03Eagq-143" value="Produto" style="whiteSpace=wrap;html=1;align=center;fillColor=#dae8fc;strokeColor=#000000;" vertex="1" parent="1">
          <mxGeometry x="755" y="2570" width="100" height="40" as="geometry" />
        </mxCell>
        <mxCell id="Wo2uXCsl7uv-fc03Eagq-144" style="edgeStyle=none;shape=connector;rounded=0;orthogonalLoop=1;jettySize=auto;html=1;exitX=1;exitY=0.5;exitDx=0;exitDy=0;entryX=0;entryY=0.5;entryDx=0;entryDy=0;strokeColor=#d6b656;align=center;verticalAlign=middle;fontFamily=Helvetica;fontSize=11;fontColor=default;labelBackgroundColor=none;endArrow=none;endFill=0;fillColor=#fff2cc;" edge="1" parent="1" source="Wo2uXCsl7uv-fc03Eagq-145" target="Wo2uXCsl7uv-fc03Eagq-143">
          <mxGeometry relative="1" as="geometry" />
        </mxCell>
        <mxCell id="Wo2uXCsl7uv-fc03Eagq-145" value="ID produto" style="ellipse;whiteSpace=wrap;html=1;align=center;fontStyle=4;fontFamily=Helvetica;fontSize=11;labelBackgroundColor=none;fillColor=#fff2cc;strokeColor=#d6b656;" vertex="1" parent="1">
          <mxGeometry x="655" y="2570" width="80" height="40" as="geometry" />
        </mxCell>
        <mxCell id="Wo2uXCsl7uv-fc03Eagq-146" style="edgeStyle=none;shape=connector;rounded=0;orthogonalLoop=1;jettySize=auto;html=1;exitX=0.5;exitY=0;exitDx=0;exitDy=0;entryX=0.5;entryY=1;entryDx=0;entryDy=0;strokeColor=#d6b656;align=center;verticalAlign=middle;fontFamily=Helvetica;fontSize=11;fontColor=default;labelBackgroundColor=none;endArrow=none;endFill=0;fillColor=#fff2cc;" edge="1" parent="1" source="Wo2uXCsl7uv-fc03Eagq-147" target="Wo2uXCsl7uv-fc03Eagq-143">
          <mxGeometry relative="1" as="geometry" />
        </mxCell>
        <mxCell id="Wo2uXCsl7uv-fc03Eagq-147" value="Descrição" style="ellipse;whiteSpace=wrap;html=1;align=center;fontFamily=Helvetica;fontSize=11;labelBackgroundColor=none;fillColor=#fff2cc;strokeColor=#d6b656;" vertex="1" parent="1">
          <mxGeometry x="655" y="2620" width="80" height="40" as="geometry" />
        </mxCell>
        <mxCell id="Wo2uXCsl7uv-fc03Eagq-148" style="edgeStyle=none;shape=connector;rounded=0;orthogonalLoop=1;jettySize=auto;html=1;exitX=0.5;exitY=0;exitDx=0;exitDy=0;strokeColor=#d6b656;align=center;verticalAlign=middle;fontFamily=Helvetica;fontSize=11;fontColor=default;labelBackgroundColor=none;endArrow=none;endFill=0;fillColor=#fff2cc;" edge="1" parent="1" source="Wo2uXCsl7uv-fc03Eagq-149">
          <mxGeometry relative="1" as="geometry">
            <mxPoint x="805" y="2610" as="targetPoint" />
          </mxGeometry>
        </mxCell>
        <mxCell id="Wo2uXCsl7uv-fc03Eagq-149" value="Valor" style="ellipse;whiteSpace=wrap;html=1;align=center;fontFamily=Helvetica;fontSize=11;labelBackgroundColor=none;fillColor=#fff2cc;strokeColor=#d6b656;" vertex="1" parent="1">
          <mxGeometry x="665" y="2680" width="80" height="40" as="geometry" />
        </mxCell>
        <mxCell id="Wo2uXCsl7uv-fc03Eagq-150" style="edgeStyle=none;shape=connector;rounded=0;orthogonalLoop=1;jettySize=auto;html=1;exitX=0.5;exitY=0;exitDx=0;exitDy=0;entryX=0.5;entryY=1;entryDx=0;entryDy=0;strokeColor=#d6b656;align=center;verticalAlign=middle;fontFamily=Helvetica;fontSize=11;fontColor=default;labelBackgroundColor=none;endArrow=none;endFill=0;fillColor=#fff2cc;" edge="1" parent="1" source="Wo2uXCsl7uv-fc03Eagq-151" target="Wo2uXCsl7uv-fc03Eagq-143">
          <mxGeometry relative="1" as="geometry" />
        </mxCell>
        <mxCell id="Wo2uXCsl7uv-fc03Eagq-151" value="Nome" style="ellipse;whiteSpace=wrap;html=1;align=center;fontFamily=Helvetica;fontSize=11;labelBackgroundColor=none;fillColor=#fff2cc;strokeColor=#d6b656;" vertex="1" parent="1">
          <mxGeometry x="740" y="2660" width="80" height="40" as="geometry" />
        </mxCell>
        <mxCell id="Wo2uXCsl7uv-fc03Eagq-152" style="edgeStyle=none;shape=connector;rounded=0;orthogonalLoop=1;jettySize=auto;html=1;exitX=0.5;exitY=0;exitDx=0;exitDy=0;entryX=0.5;entryY=1;entryDx=0;entryDy=0;strokeColor=#d6b656;align=center;verticalAlign=middle;fontFamily=Helvetica;fontSize=11;fontColor=default;labelBackgroundColor=none;endArrow=none;endFill=0;fillColor=#fff2cc;" edge="1" parent="1" source="Wo2uXCsl7uv-fc03Eagq-153" target="Wo2uXCsl7uv-fc03Eagq-143">
          <mxGeometry relative="1" as="geometry" />
        </mxCell>
        <mxCell id="Wo2uXCsl7uv-fc03Eagq-153" value="Quantidade" style="ellipse;whiteSpace=wrap;html=1;align=center;dashed=1;fontFamily=Helvetica;fontSize=11;labelBackgroundColor=none;fillColor=#fff2cc;strokeColor=#d6b656;" vertex="1" parent="1">
          <mxGeometry x="805" y="2630" width="80" height="40" as="geometry" />
        </mxCell>
        <mxCell id="Wo2uXCsl7uv-fc03Eagq-154" style="edgeStyle=none;shape=connector;rounded=0;orthogonalLoop=1;jettySize=auto;html=1;exitX=1;exitY=0.5;exitDx=0;exitDy=0;entryX=0.5;entryY=0;entryDx=0;entryDy=0;strokeColor=#d6b656;align=center;verticalAlign=middle;fontFamily=Helvetica;fontSize=11;fontColor=default;labelBackgroundColor=none;endArrow=none;endFill=0;fillColor=#fff2cc;" edge="1" parent="1" source="Wo2uXCsl7uv-fc03Eagq-155" target="Wo2uXCsl7uv-fc03Eagq-143">
          <mxGeometry relative="1" as="geometry" />
        </mxCell>
        <mxCell id="Wo2uXCsl7uv-fc03Eagq-155" value="Lote" style="ellipse;whiteSpace=wrap;html=1;align=center;fontFamily=Helvetica;fontSize=11;labelBackgroundColor=none;fillColor=#fff2cc;strokeColor=#d6b656;" vertex="1" parent="1">
          <mxGeometry x="675" y="2510" width="80" height="40" as="geometry" />
        </mxCell>
        <mxCell id="Wo2uXCsl7uv-fc03Eagq-156" style="edgeStyle=none;shape=connector;rounded=0;orthogonalLoop=1;jettySize=auto;html=1;exitX=0.5;exitY=1;exitDx=0;exitDy=0;entryX=0.5;entryY=0;entryDx=0;entryDy=0;strokeColor=#d6b656;align=center;verticalAlign=middle;fontFamily=Helvetica;fontSize=11;fontColor=default;labelBackgroundColor=none;endArrow=none;endFill=0;fillColor=#fff2cc;" edge="1" parent="1" source="Wo2uXCsl7uv-fc03Eagq-157" target="Wo2uXCsl7uv-fc03Eagq-143">
          <mxGeometry relative="1" as="geometry" />
        </mxCell>
        <mxCell id="Wo2uXCsl7uv-fc03Eagq-157" value="Data&lt;div&gt;validade&lt;/div&gt;" style="ellipse;whiteSpace=wrap;html=1;align=center;fontFamily=Helvetica;fontSize=11;labelBackgroundColor=none;fillColor=#fff2cc;strokeColor=#d6b656;" vertex="1" parent="1">
          <mxGeometry x="695" y="2460" width="80" height="40" as="geometry" />
        </mxCell>
        <mxCell id="Wo2uXCsl7uv-fc03Eagq-158" style="edgeStyle=none;shape=connector;rounded=0;orthogonalLoop=1;jettySize=auto;html=1;exitX=0.5;exitY=1;exitDx=0;exitDy=0;strokeColor=#d6b656;align=center;verticalAlign=middle;fontFamily=Helvetica;fontSize=11;fontColor=default;labelBackgroundColor=none;endArrow=none;endFill=0;fillColor=#fff2cc;" edge="1" parent="1" source="Wo2uXCsl7uv-fc03Eagq-159">
          <mxGeometry relative="1" as="geometry">
            <mxPoint x="800" y="2570" as="targetPoint" />
          </mxGeometry>
        </mxCell>
        <mxCell id="Wo2uXCsl7uv-fc03Eagq-159" value="Data&lt;div&gt;fabricação&lt;/div&gt;" style="ellipse;whiteSpace=wrap;html=1;align=center;fontFamily=Helvetica;fontSize=11;labelBackgroundColor=none;fillColor=#fff2cc;strokeColor=#d6b656;" vertex="1" parent="1">
          <mxGeometry x="765" y="2490" width="80" height="40" as="geometry" />
        </mxCell>
        <mxCell id="Wo2uXCsl7uv-fc03Eagq-160" style="edgeStyle=none;shape=connector;rounded=0;orthogonalLoop=1;jettySize=auto;html=1;exitX=1;exitY=0.5;exitDx=0;exitDy=0;entryX=0;entryY=0.5;entryDx=0;entryDy=0;strokeColor=#d6b656;align=center;verticalAlign=middle;fontFamily=Helvetica;fontSize=11;fontColor=default;labelBackgroundColor=none;endArrow=none;endFill=0;fillColor=#fff2cc;" edge="1" parent="1" source="Wo2uXCsl7uv-fc03Eagq-161" target="Wo2uXCsl7uv-fc03Eagq-143">
          <mxGeometry relative="1" as="geometry" />
        </mxCell>
        <mxCell id="Wo2uXCsl7uv-fc03Eagq-161" value="Fabricante" style="ellipse;whiteSpace=wrap;html=1;align=center;fontFamily=Helvetica;fontSize=11;labelBackgroundColor=none;fillColor=#fff2cc;strokeColor=#d6b656;" vertex="1" parent="1">
          <mxGeometry x="600" y="2530" width="80" height="40" as="geometry" />
        </mxCell>
        <mxCell id="Wo2uXCsl7uv-fc03Eagq-162" style="edgeStyle=none;shape=connector;rounded=0;orthogonalLoop=1;jettySize=auto;html=1;exitX=1;exitY=0.5;exitDx=0;exitDy=0;entryX=0;entryY=0.5;entryDx=0;entryDy=0;strokeColor=default;align=center;verticalAlign=middle;fontFamily=Helvetica;fontSize=11;fontColor=default;labelBackgroundColor=none;endArrow=none;endFill=0;" edge="1" parent="1" source="Wo2uXCsl7uv-fc03Eagq-163" target="Wo2uXCsl7uv-fc03Eagq-4">
          <mxGeometry relative="1" as="geometry" />
        </mxCell>
        <mxCell id="Wo2uXCsl7uv-fc03Eagq-163" value="Endereço" style="ellipse;whiteSpace=wrap;html=1;align=center;fillColor=#fff2cc;strokeColor=#d6b656;" vertex="1" parent="1">
          <mxGeometry x="590" y="3150" width="100" height="40" as="geometry" />
        </mxCell>
        <mxCell id="Wo2uXCsl7uv-fc03Eagq-164" style="edgeStyle=none;shape=connector;rounded=0;orthogonalLoop=1;jettySize=auto;html=1;exitX=1;exitY=1;exitDx=0;exitDy=0;entryX=0;entryY=0.5;entryDx=0;entryDy=0;strokeColor=#d6b656;align=center;verticalAlign=middle;fontFamily=Helvetica;fontSize=11;fontColor=default;labelBackgroundColor=default;endArrow=none;endFill=0;fillColor=#fff2cc;" edge="1" parent="1" source="Wo2uXCsl7uv-fc03Eagq-165" target="Wo2uXCsl7uv-fc03Eagq-163">
          <mxGeometry relative="1" as="geometry" />
        </mxCell>
        <mxCell id="Wo2uXCsl7uv-fc03Eagq-165" value="Logradouro" style="ellipse;whiteSpace=wrap;html=1;align=center;fillColor=#fff2cc;strokeColor=#d6b656;" vertex="1" parent="1">
          <mxGeometry x="450" y="2990" width="70" height="40" as="geometry" />
        </mxCell>
        <mxCell id="Wo2uXCsl7uv-fc03Eagq-166" style="edgeStyle=none;shape=connector;rounded=0;orthogonalLoop=1;jettySize=auto;html=1;exitX=1;exitY=1;exitDx=0;exitDy=0;strokeColor=#d6b656;align=center;verticalAlign=middle;fontFamily=Helvetica;fontSize=11;fontColor=default;labelBackgroundColor=default;endArrow=none;endFill=0;fillColor=#fff2cc;" edge="1" parent="1" source="Wo2uXCsl7uv-fc03Eagq-167">
          <mxGeometry relative="1" as="geometry">
            <mxPoint x="590" y="3170" as="targetPoint" />
          </mxGeometry>
        </mxCell>
        <mxCell id="Wo2uXCsl7uv-fc03Eagq-167" value="Endereço" style="ellipse;whiteSpace=wrap;html=1;align=center;fillColor=#fff2cc;strokeColor=#d6b656;" vertex="1" parent="1">
          <mxGeometry x="450" y="3040" width="70" height="40" as="geometry" />
        </mxCell>
        <mxCell id="Wo2uXCsl7uv-fc03Eagq-168" style="edgeStyle=none;shape=connector;rounded=0;orthogonalLoop=1;jettySize=auto;html=1;exitX=1;exitY=0.5;exitDx=0;exitDy=0;entryX=0;entryY=0.5;entryDx=0;entryDy=0;strokeColor=#d6b656;align=center;verticalAlign=middle;fontFamily=Helvetica;fontSize=11;fontColor=default;labelBackgroundColor=default;endArrow=none;endFill=0;fillColor=#fff2cc;" edge="1" parent="1" source="Wo2uXCsl7uv-fc03Eagq-169" target="Wo2uXCsl7uv-fc03Eagq-163">
          <mxGeometry relative="1" as="geometry" />
        </mxCell>
        <mxCell id="Wo2uXCsl7uv-fc03Eagq-169" value="Numero" style="ellipse;whiteSpace=wrap;html=1;align=center;fillColor=#fff2cc;strokeColor=#d6b656;" vertex="1" parent="1">
          <mxGeometry x="450" y="3090" width="70" height="40" as="geometry" />
        </mxCell>
        <mxCell id="Wo2uXCsl7uv-fc03Eagq-170" style="edgeStyle=none;shape=connector;rounded=0;orthogonalLoop=1;jettySize=auto;html=1;exitX=1;exitY=0;exitDx=0;exitDy=0;entryX=0;entryY=0.5;entryDx=0;entryDy=0;strokeColor=#d6b656;align=center;verticalAlign=middle;fontFamily=Helvetica;fontSize=11;fontColor=default;labelBackgroundColor=default;endArrow=none;endFill=0;fillColor=#fff2cc;" edge="1" parent="1" source="Wo2uXCsl7uv-fc03Eagq-171" target="Wo2uXCsl7uv-fc03Eagq-163">
          <mxGeometry relative="1" as="geometry" />
        </mxCell>
        <mxCell id="Wo2uXCsl7uv-fc03Eagq-171" value="CEP&lt;span style=&quot;white-space: pre;&quot;&gt;&#x9;&lt;/span&gt;" style="ellipse;whiteSpace=wrap;html=1;align=center;fillColor=#fff2cc;strokeColor=#d6b656;" vertex="1" parent="1">
          <mxGeometry x="450" y="3140" width="70" height="40" as="geometry" />
        </mxCell>
        <mxCell id="Wo2uXCsl7uv-fc03Eagq-172" style="edgeStyle=none;shape=connector;rounded=0;orthogonalLoop=1;jettySize=auto;html=1;exitX=1;exitY=0.5;exitDx=0;exitDy=0;strokeColor=#d6b656;align=center;verticalAlign=middle;fontFamily=Helvetica;fontSize=11;fontColor=default;labelBackgroundColor=default;endArrow=none;endFill=0;fillColor=#fff2cc;" edge="1" parent="1" source="Wo2uXCsl7uv-fc03Eagq-173">
          <mxGeometry relative="1" as="geometry">
            <mxPoint x="590" y="3170" as="targetPoint" />
          </mxGeometry>
        </mxCell>
        <mxCell id="Wo2uXCsl7uv-fc03Eagq-173" value="Cidade" style="ellipse;whiteSpace=wrap;html=1;align=center;fillColor=#fff2cc;strokeColor=#d6b656;" vertex="1" parent="1">
          <mxGeometry x="450" y="3240" width="70" height="40" as="geometry" />
        </mxCell>
        <mxCell id="Wo2uXCsl7uv-fc03Eagq-174" style="edgeStyle=none;shape=connector;rounded=0;orthogonalLoop=1;jettySize=auto;html=1;exitX=1;exitY=0.5;exitDx=0;exitDy=0;strokeColor=#d6b656;align=center;verticalAlign=middle;fontFamily=Helvetica;fontSize=11;fontColor=default;labelBackgroundColor=default;endArrow=none;endFill=0;fillColor=#fff2cc;" edge="1" parent="1" source="Wo2uXCsl7uv-fc03Eagq-175">
          <mxGeometry relative="1" as="geometry">
            <mxPoint x="590" y="3170" as="targetPoint" />
          </mxGeometry>
        </mxCell>
        <mxCell id="Wo2uXCsl7uv-fc03Eagq-175" value="Bairro" style="ellipse;whiteSpace=wrap;html=1;align=center;fillColor=#fff2cc;strokeColor=#d6b656;" vertex="1" parent="1">
          <mxGeometry x="450" y="3190" width="70" height="40" as="geometry" />
        </mxCell>
        <mxCell id="Wo2uXCsl7uv-fc03Eagq-176" style="edgeStyle=none;shape=connector;rounded=0;orthogonalLoop=1;jettySize=auto;html=1;exitX=1;exitY=0.5;exitDx=0;exitDy=0;strokeColor=#d6b656;align=center;verticalAlign=middle;fontFamily=Helvetica;fontSize=11;fontColor=default;labelBackgroundColor=default;endArrow=none;endFill=0;fillColor=#fff2cc;" edge="1" parent="1" source="Wo2uXCsl7uv-fc03Eagq-177">
          <mxGeometry relative="1" as="geometry">
            <mxPoint x="590" y="3170" as="targetPoint" />
          </mxGeometry>
        </mxCell>
        <mxCell id="Wo2uXCsl7uv-fc03Eagq-177" value="UF" style="ellipse;whiteSpace=wrap;html=1;align=center;fillColor=#fff2cc;strokeColor=#d6b656;" vertex="1" parent="1">
          <mxGeometry x="450" y="3290" width="70" height="40" as="geometry" />
        </mxCell>
        <mxCell id="Wo2uXCsl7uv-fc03Eagq-178" style="edgeStyle=none;shape=connector;rounded=0;orthogonalLoop=1;jettySize=auto;html=1;exitX=1;exitY=0.5;exitDx=0;exitDy=0;entryX=0;entryY=0.5;entryDx=0;entryDy=0;strokeColor=#d6b656;align=center;verticalAlign=middle;fontFamily=Helvetica;fontSize=11;fontColor=default;labelBackgroundColor=default;endArrow=none;endFill=0;fillColor=#fff2cc;" edge="1" parent="1" source="Wo2uXCsl7uv-fc03Eagq-179" target="Wo2uXCsl7uv-fc03Eagq-163">
          <mxGeometry relative="1" as="geometry" />
        </mxCell>
        <mxCell id="Wo2uXCsl7uv-fc03Eagq-179" value="Complemento" style="ellipse;whiteSpace=wrap;html=1;align=center;fillColor=#fff2cc;strokeColor=#d6b656;" vertex="1" parent="1">
          <mxGeometry x="450" y="3340" width="70" height="40" as="geometry" />
        </mxCell>
        <mxCell id="Wo2uXCsl7uv-fc03Eagq-180" style="edgeStyle=none;shape=connector;rounded=0;orthogonalLoop=1;jettySize=auto;html=1;exitX=0;exitY=0.5;exitDx=0;exitDy=0;strokeColor=#d6b656;align=center;verticalAlign=middle;fontFamily=Helvetica;fontSize=11;fontColor=default;labelBackgroundColor=default;endArrow=none;endFill=0;fillColor=#fff2cc;" edge="1" parent="1" source="Wo2uXCsl7uv-fc03Eagq-167" target="Wo2uXCsl7uv-fc03Eagq-167">
          <mxGeometry relative="1" as="geometry" />
        </mxCell>
        <mxCell id="Wo2uXCsl7uv-fc03Eagq-181" style="edgeStyle=none;shape=connector;rounded=0;orthogonalLoop=1;jettySize=auto;html=1;exitX=1;exitY=1;exitDx=0;exitDy=0;entryX=0;entryY=0.5;entryDx=0;entryDy=0;strokeColor=default;align=center;verticalAlign=middle;fontFamily=Helvetica;fontSize=11;fontColor=default;labelBackgroundColor=none;endArrow=none;endFill=0;" edge="1" parent="1" source="Wo2uXCsl7uv-fc03Eagq-182" target="Wo2uXCsl7uv-fc03Eagq-4">
          <mxGeometry relative="1" as="geometry" />
        </mxCell>
        <mxCell id="Wo2uXCsl7uv-fc03Eagq-182" value="ID matriz" style="ellipse;whiteSpace=wrap;html=1;align=center;fontStyle=4;fontFamily=Helvetica;fontSize=11;labelBackgroundColor=none;fillColor=#fff2cc;strokeColor=#d6b656;" vertex="1" parent="1">
          <mxGeometry x="630" y="3100" width="80" height="40" as="geometry" />
        </mxCell>
        <mxCell id="Wo2uXCsl7uv-fc03Eagq-183" style="edgeStyle=none;shape=connector;rounded=0;orthogonalLoop=1;jettySize=auto;html=1;exitX=0;exitY=0.5;exitDx=0;exitDy=0;entryX=1;entryY=0.5;entryDx=0;entryDy=0;strokeColor=default;align=center;verticalAlign=middle;fontFamily=Helvetica;fontSize=11;fontColor=default;labelBackgroundColor=none;endArrow=none;endFill=0;" edge="1" parent="1" source="Wo2uXCsl7uv-fc03Eagq-184" target="Wo2uXCsl7uv-fc03Eagq-4">
          <mxGeometry relative="1" as="geometry" />
        </mxCell>
        <mxCell id="Wo2uXCsl7uv-fc03Eagq-184" value="Telefone" style="ellipse;shape=doubleEllipse;margin=3;whiteSpace=wrap;html=1;align=center;fillColor=#fff2cc;strokeColor=#d6b656;labelBackgroundColor=none;" vertex="1" parent="1">
          <mxGeometry x="845" y="3150" width="75" height="40" as="geometry" />
        </mxCell>
        <mxCell id="Wo2uXCsl7uv-fc03Eagq-185" style="edgeStyle=none;shape=connector;rounded=0;orthogonalLoop=1;jettySize=auto;html=1;exitX=0;exitY=0.5;exitDx=0;exitDy=0;entryX=1;entryY=0.5;entryDx=0;entryDy=0;strokeColor=#d6b656;align=center;verticalAlign=middle;fontFamily=Helvetica;fontSize=11;fontColor=default;labelBackgroundColor=none;endArrow=none;endFill=0;fillColor=#fff2cc;" edge="1" parent="1" source="Wo2uXCsl7uv-fc03Eagq-186" target="Wo2uXCsl7uv-fc03Eagq-184">
          <mxGeometry relative="1" as="geometry" />
        </mxCell>
        <mxCell id="Wo2uXCsl7uv-fc03Eagq-186" value="número" style="ellipse;whiteSpace=wrap;html=1;align=center;fillColor=#fff2cc;strokeColor=#d6b656;labelBackgroundColor=none;" vertex="1" parent="1">
          <mxGeometry x="945" y="3130" width="70" height="40" as="geometry" />
        </mxCell>
        <mxCell id="Wo2uXCsl7uv-fc03Eagq-187" style="edgeStyle=none;shape=connector;rounded=0;orthogonalLoop=1;jettySize=auto;html=1;exitX=0;exitY=0.5;exitDx=0;exitDy=0;entryX=1;entryY=0.5;entryDx=0;entryDy=0;strokeColor=#d6b656;align=center;verticalAlign=middle;fontFamily=Helvetica;fontSize=11;fontColor=default;labelBackgroundColor=none;endArrow=none;endFill=0;fillColor=#fff2cc;" edge="1" parent="1" source="Wo2uXCsl7uv-fc03Eagq-188" target="Wo2uXCsl7uv-fc03Eagq-184">
          <mxGeometry relative="1" as="geometry" />
        </mxCell>
        <mxCell id="Wo2uXCsl7uv-fc03Eagq-188" value="Tipo" style="ellipse;whiteSpace=wrap;html=1;align=center;fillColor=#fff2cc;strokeColor=#d6b656;labelBackgroundColor=none;" vertex="1" parent="1">
          <mxGeometry x="945" y="3170" width="70" height="40" as="geometry" />
        </mxCell>
        <mxCell id="Wo2uXCsl7uv-fc03Eagq-189" style="edgeStyle=none;shape=connector;rounded=0;orthogonalLoop=1;jettySize=auto;html=1;exitX=0.5;exitY=1;exitDx=0;exitDy=0;entryX=1;entryY=0.5;entryDx=0;entryDy=0;strokeColor=default;align=center;verticalAlign=middle;fontFamily=Helvetica;fontSize=11;fontColor=default;labelBackgroundColor=none;endArrow=none;endFill=0;" edge="1" parent="1" source="Wo2uXCsl7uv-fc03Eagq-190" target="Wo2uXCsl7uv-fc03Eagq-7">
          <mxGeometry relative="1" as="geometry" />
        </mxCell>
        <mxCell id="Wo2uXCsl7uv-fc03Eagq-190" value="E-mail" style="ellipse;whiteSpace=wrap;html=1;align=center;labelBackgroundColor=none;fillColor=#fff2cc;strokeColor=#d6b656;" vertex="1" parent="1">
          <mxGeometry x="900" y="285" width="80" height="40" as="geometry" />
        </mxCell>
        <mxCell id="Wo2uXCsl7uv-fc03Eagq-191" style="edgeStyle=none;shape=connector;rounded=0;orthogonalLoop=1;jettySize=auto;html=1;exitX=1;exitY=0;exitDx=0;exitDy=0;strokeColor=default;align=center;verticalAlign=middle;fontFamily=Helvetica;fontSize=11;fontColor=default;labelBackgroundColor=none;endArrow=none;endFill=0;" edge="1" parent="1" source="Wo2uXCsl7uv-fc03Eagq-192">
          <mxGeometry relative="1" as="geometry">
            <mxPoint x="730" y="3170" as="targetPoint" />
          </mxGeometry>
        </mxCell>
        <mxCell id="Wo2uXCsl7uv-fc03Eagq-192" value="E-mail" style="ellipse;whiteSpace=wrap;html=1;align=center;labelBackgroundColor=none;fillColor=#fff2cc;strokeColor=#d6b656;" vertex="1" parent="1">
          <mxGeometry x="630" y="3200" width="80" height="40" as="geometry" />
        </mxCell>
        <mxCell id="Wo2uXCsl7uv-fc03Eagq-193" style="edgeStyle=none;shape=connector;rounded=0;orthogonalLoop=1;jettySize=auto;html=1;exitX=0.5;exitY=1;exitDx=0;exitDy=0;strokeColor=default;align=center;verticalAlign=middle;fontFamily=Helvetica;fontSize=11;fontColor=default;labelBackgroundColor=none;endArrow=none;endFill=0;" edge="1" parent="1" source="Wo2uXCsl7uv-fc03Eagq-194">
          <mxGeometry relative="1" as="geometry">
            <mxPoint x="740" y="1820" as="targetPoint" />
          </mxGeometry>
        </mxCell>
        <mxCell id="Wo2uXCsl7uv-fc03Eagq-194" value="E-mail" style="ellipse;whiteSpace=wrap;html=1;align=center;labelBackgroundColor=none;fillColor=#fff2cc;strokeColor=#d6b656;" vertex="1" parent="1">
          <mxGeometry x="660" y="1720" width="80" height="40" as="geometry" />
        </mxCell>
        <mxCell id="Wo2uXCsl7uv-fc03Eagq-195" value="filial" style="shape=ext;margin=3;double=1;whiteSpace=wrap;html=1;align=center;fontFamily=Helvetica;fontSize=11;labelBackgroundColor=none;fillColor=#e1d5e7;strokeColor=#000000;" vertex="1" parent="1">
          <mxGeometry x="747.5" y="3510" width="100" height="40" as="geometry" />
        </mxCell>
        <mxCell id="Wo2uXCsl7uv-fc03Eagq-196" style="edgeStyle=none;shape=connector;rounded=0;orthogonalLoop=1;jettySize=auto;html=1;exitX=0.5;exitY=0;exitDx=0;exitDy=0;entryX=0.5;entryY=1;entryDx=0;entryDy=0;strokeColor=default;align=center;verticalAlign=middle;fontFamily=Helvetica;fontSize=11;fontColor=default;labelBackgroundColor=none;endArrow=none;endFill=0;" edge="1" parent="1" source="Wo2uXCsl7uv-fc03Eagq-197" target="Wo2uXCsl7uv-fc03Eagq-195">
          <mxGeometry relative="1" as="geometry" />
        </mxCell>
        <mxCell id="Wo2uXCsl7uv-fc03Eagq-197" value="Nome" style="ellipse;whiteSpace=wrap;html=1;align=center;fillColor=#fff2cc;strokeColor=#d6b656;labelBackgroundColor=none;" vertex="1" parent="1">
          <mxGeometry x="757.5" y="3580" width="80" height="40" as="geometry" />
        </mxCell>
        <mxCell id="Wo2uXCsl7uv-fc03Eagq-198" style="edgeStyle=none;shape=connector;rounded=0;orthogonalLoop=1;jettySize=auto;html=1;exitX=1;exitY=0;exitDx=0;exitDy=0;entryX=0.5;entryY=1;entryDx=0;entryDy=0;strokeColor=default;align=center;verticalAlign=middle;fontFamily=Helvetica;fontSize=11;fontColor=default;labelBackgroundColor=none;endArrow=none;endFill=0;" edge="1" parent="1" source="Wo2uXCsl7uv-fc03Eagq-199" target="Wo2uXCsl7uv-fc03Eagq-195">
          <mxGeometry relative="1" as="geometry" />
        </mxCell>
        <mxCell id="Wo2uXCsl7uv-fc03Eagq-199" value="ID filial" style="ellipse;whiteSpace=wrap;html=1;align=center;fontStyle=4;fontFamily=Helvetica;fontSize=11;labelBackgroundColor=none;fillColor=#fff2cc;strokeColor=#d6b656;" vertex="1" parent="1">
          <mxGeometry x="652.5" y="3570" width="80" height="40" as="geometry" />
        </mxCell>
        <mxCell id="Wo2uXCsl7uv-fc03Eagq-200" style="edgeStyle=none;shape=connector;rounded=0;orthogonalLoop=1;jettySize=auto;html=1;exitX=0;exitY=0.5;exitDx=0;exitDy=0;entryX=1;entryY=0.5;entryDx=0;entryDy=0;strokeColor=default;align=center;verticalAlign=middle;fontFamily=Helvetica;fontSize=11;fontColor=default;labelBackgroundColor=none;endArrow=none;endFill=0;" edge="1" parent="1" source="Wo2uXCsl7uv-fc03Eagq-201" target="Wo2uXCsl7uv-fc03Eagq-195">
          <mxGeometry relative="1" as="geometry" />
        </mxCell>
        <mxCell id="Wo2uXCsl7uv-fc03Eagq-201" value="Localização" style="ellipse;shape=doubleEllipse;margin=3;whiteSpace=wrap;html=1;align=center;fillColor=#fff2cc;strokeColor=#d6b656;labelBackgroundColor=none;" vertex="1" parent="1">
          <mxGeometry x="877.5" y="3510" width="75" height="40" as="geometry" />
        </mxCell>
        <mxCell id="Wo2uXCsl7uv-fc03Eagq-202" style="edgeStyle=none;shape=connector;rounded=0;orthogonalLoop=1;jettySize=auto;html=1;exitX=0;exitY=0.5;exitDx=0;exitDy=0;entryX=0.5;entryY=1;entryDx=0;entryDy=0;strokeColor=default;align=center;verticalAlign=middle;fontFamily=Helvetica;fontSize=11;fontColor=default;labelBackgroundColor=none;endArrow=none;endFill=0;" edge="1" parent="1" source="Wo2uXCsl7uv-fc03Eagq-203" target="Wo2uXCsl7uv-fc03Eagq-195">
          <mxGeometry relative="1" as="geometry" />
        </mxCell>
        <mxCell id="Wo2uXCsl7uv-fc03Eagq-203" value="Telefone" style="ellipse;shape=doubleEllipse;margin=3;whiteSpace=wrap;html=1;align=center;fillColor=#fff2cc;strokeColor=#d6b656;labelBackgroundColor=none;" vertex="1" parent="1">
          <mxGeometry x="850" y="3570" width="75" height="40" as="geometry" />
        </mxCell>
        <mxCell id="Wo2uXCsl7uv-fc03Eagq-204" style="edgeStyle=none;shape=connector;rounded=0;orthogonalLoop=1;jettySize=auto;html=1;exitX=0;exitY=0.5;exitDx=0;exitDy=0;entryX=1;entryY=0.5;entryDx=0;entryDy=0;strokeColor=#d6b656;align=center;verticalAlign=middle;fontFamily=Helvetica;fontSize=11;fontColor=default;labelBackgroundColor=none;endArrow=none;endFill=0;fillColor=#fff2cc;" edge="1" parent="1" source="Wo2uXCsl7uv-fc03Eagq-205" target="Wo2uXCsl7uv-fc03Eagq-203">
          <mxGeometry relative="1" as="geometry" />
        </mxCell>
        <mxCell id="Wo2uXCsl7uv-fc03Eagq-205" value="número" style="ellipse;whiteSpace=wrap;html=1;align=center;fillColor=#fff2cc;strokeColor=#d6b656;labelBackgroundColor=none;" vertex="1" parent="1">
          <mxGeometry x="950" y="3550" width="70" height="40" as="geometry" />
        </mxCell>
        <mxCell id="Wo2uXCsl7uv-fc03Eagq-206" style="edgeStyle=none;shape=connector;rounded=0;orthogonalLoop=1;jettySize=auto;html=1;exitX=0;exitY=0.5;exitDx=0;exitDy=0;entryX=1;entryY=0.5;entryDx=0;entryDy=0;strokeColor=#d6b656;align=center;verticalAlign=middle;fontFamily=Helvetica;fontSize=11;fontColor=default;labelBackgroundColor=none;endArrow=none;endFill=0;fillColor=#fff2cc;" edge="1" parent="1" source="Wo2uXCsl7uv-fc03Eagq-207" target="Wo2uXCsl7uv-fc03Eagq-203">
          <mxGeometry relative="1" as="geometry" />
        </mxCell>
        <mxCell id="Wo2uXCsl7uv-fc03Eagq-207" value="Tipo" style="ellipse;whiteSpace=wrap;html=1;align=center;fillColor=#fff2cc;strokeColor=#d6b656;labelBackgroundColor=none;" vertex="1" parent="1">
          <mxGeometry x="950" y="3590" width="70" height="40" as="geometry" />
        </mxCell>
        <mxCell id="Wo2uXCsl7uv-fc03Eagq-208" style="edgeStyle=none;shape=connector;rounded=0;orthogonalLoop=1;jettySize=auto;html=1;exitX=1;exitY=0.5;exitDx=0;exitDy=0;strokeColor=default;align=center;verticalAlign=middle;fontFamily=Helvetica;fontSize=11;fontColor=default;labelBackgroundColor=none;endArrow=none;endFill=0;" edge="1" parent="1" source="Wo2uXCsl7uv-fc03Eagq-209" target="Wo2uXCsl7uv-fc03Eagq-1">
          <mxGeometry relative="1" as="geometry" />
        </mxCell>
        <mxCell id="Wo2uXCsl7uv-fc03Eagq-209" value="ID produto" style="ellipse;whiteSpace=wrap;html=1;align=center;fontStyle=4;fontFamily=Helvetica;fontSize=11;labelBackgroundColor=none;fillColor=#fff2cc;strokeColor=#d6b656;" vertex="1" parent="1">
          <mxGeometry x="630" y="3820" width="80" height="40" as="geometry" />
        </mxCell>
        <mxCell id="Wo2uXCsl7uv-fc03Eagq-210" style="edgeStyle=none;shape=connector;rounded=0;orthogonalLoop=1;jettySize=auto;html=1;exitX=1;exitY=1;exitDx=0;exitDy=0;entryX=0;entryY=0.5;entryDx=0;entryDy=0;strokeColor=default;align=center;verticalAlign=middle;fontFamily=Helvetica;fontSize=11;fontColor=default;labelBackgroundColor=none;endArrow=none;endFill=0;" edge="1" parent="1" source="Wo2uXCsl7uv-fc03Eagq-211" target="Wo2uXCsl7uv-fc03Eagq-1">
          <mxGeometry relative="1" as="geometry" />
        </mxCell>
        <mxCell id="Wo2uXCsl7uv-fc03Eagq-211" value="Nome" style="ellipse;whiteSpace=wrap;html=1;align=center;fillColor=#fff2cc;strokeColor=#d6b656;labelBackgroundColor=none;" vertex="1" parent="1">
          <mxGeometry x="630" y="3760" width="80" height="40" as="geometry" />
        </mxCell>
        <mxCell id="Wo2uXCsl7uv-fc03Eagq-212" style="edgeStyle=none;shape=connector;rounded=0;orthogonalLoop=1;jettySize=auto;html=1;exitX=1;exitY=0;exitDx=0;exitDy=0;entryX=0;entryY=0.5;entryDx=0;entryDy=0;strokeColor=default;align=center;verticalAlign=middle;fontFamily=Helvetica;fontSize=11;fontColor=default;labelBackgroundColor=none;endArrow=none;endFill=0;" edge="1" parent="1" source="Wo2uXCsl7uv-fc03Eagq-213" target="Wo2uXCsl7uv-fc03Eagq-1">
          <mxGeometry relative="1" as="geometry" />
        </mxCell>
        <mxCell id="Wo2uXCsl7uv-fc03Eagq-213" value="Quantidade" style="ellipse;whiteSpace=wrap;html=1;align=center;dashed=1;fontFamily=Helvetica;fontSize=11;labelBackgroundColor=none;fillColor=#fff2cc;strokeColor=#d6b656;" vertex="1" parent="1">
          <mxGeometry x="630" y="3880" width="80" height="40" as="geometry" />
        </mxCell>
      </root>
    </mxGraphModel>
  </diagram>
</mxfile>
